<svg width="533" height="35" viewBox="0 0 533 35" fill="none" xmlns="http://www.w3.org/2000/svg">
<path d="M272.056 15.5146C272.056 15.3172 273.095 18.0172 275.17 23.624C275.34 24.0959 275.537 24.7443 275.769 25.5588C275.882 25.9839 275.997 26.1922 276.109 26.1922C276.138 26.1922 276.679 25.2255 277.728 23.2907C278.045 22.7443 278.442 22.135 278.929 21.4683C279.296 20.9708 279.481 20.6735 279.481 20.5744C279.481 20.5255 279.026 19.5198 278.115 17.5615C276.977 15.1323 276.011 12.588 275.213 9.93591C273.11 13.5531 272.056 15.4162 272.056 15.5146ZM256.183 2.30937C256.183 1.98697 256.396 1.82657 256.822 1.82657C257.622 1.82657 259.24 2.59324 261.688 4.1323C265.554 6.58804 268.756 9.92404 271.289 14.1427C273.449 11.3839 274.534 7.0479 274.534 1.1187C274.534 1.0443 274.518 0.932306 274.491 0.782839C274.491 0.657372 274.491 0.574442 274.491 0.522976C274.491 0.298976 274.803 0.140176 275.428 0.0385763C277.274 0.0667094 278.344 0.0907028 278.63 0.113503C279.282 0.214569 279.608 0.473506 279.608 0.897373C279.608 0.973506 279.58 1.15057 279.525 1.43497C279.467 1.71977 279.438 1.97351 279.438 2.19737C279.438 2.89217 279.623 4.18391 279.99 6.06671C280.531 8.89484 281.346 11.8588 282.426 14.9574L282.765 14.812C283.819 11.711 286.026 8.69484 289.381 5.76924C290.743 4.57764 292.097 3.63497 293.43 2.94111C294.627 2.32031 295.554 2.01204 296.207 2.01204C296.435 2.01204 296.719 2.0719 297.059 2.19737L297.059 2.6839C293.988 3.62137 291.187 5.3839 288.654 7.96563C286.067 10.6402 284.288 13.6922 283.322 17.1162C284.486 20.0959 286.044 22.952 287.989 25.6896C289.942 28.4323 291.983 30.411 294.117 31.624L296.762 33.111C296.762 33.3839 296.534 33.523 296.076 33.523C295.65 33.523 294.811 33.2359 293.56 32.6651C291.971 31.9708 290.206 31.0146 288.267 29.8042C285.282 27.9187 282.582 25.2255 280.166 21.7282C278.569 23.564 277.52 26.2307 277.006 29.7282C276.864 30.1454 276.679 31.2656 276.448 33.0776C276.393 33.6454 276.248 33.9812 276.005 34.0802C275.762 34.1812 274.928 34.2547 273.506 34.3042C273.477 34.3042 273.422 34.3146 273.338 34.3402C273.28 34.3402 273.223 34.3402 273.163 34.3402C272.654 34.3402 272.329 34.0146 272.186 33.3719C272.012 32.3068 271.844 31.2282 271.671 30.135C270.964 26.7386 270.039 23.6506 268.899 20.8744C268.727 20.9708 268.357 21.5667 267.788 22.6574C267.08 24.0468 266.282 25.288 265.4 26.3776C263.581 28.611 261.688 30.4574 259.726 31.9187C258.332 32.9359 257.491 33.4468 257.206 33.4468C257.01 33.4468 256.755 33.2719 256.44 32.924L256.396 32.8896L258.147 31.7359C259.685 30.7172 261.162 29.4547 262.583 27.9386C264.289 26.1292 265.629 24.3563 266.594 22.6187C267.421 21.135 267.831 19.952 267.831 19.088C267.831 17.9468 267.421 16.3719 266.594 14.3615C265.629 11.9839 264.348 9.71098 262.756 7.55631C261.33 5.62404 259.838 4.29324 258.275 3.57444C256.879 2.93231 256.183 2.50937 256.183 2.30937Z" fill="#AC9104"/>
<path d="M296.501 29.1573C304.823 35.976 323.786 35.4839 327.778 24.9359C332.419 12.6735 310.858 4.97601 303.612 14.7307C303.277 15.1187 302.983 15.5479 302.767 16.0385C301.777 18.2989 302.637 20.6896 304.694 21.3744C306.748 22.0615 309.221 20.7828 310.215 18.5229C310.748 17.3041 310.729 16.0588 310.291 15.0531C310.785 13.824 311.513 13.2932 313.001 12.9959C316.989 12.2077 320.047 15.4896 321.245 17.624C323.224 21.1651 322.318 25.2255 319.616 27.9656C312.957 34.7172 299.778 29.7443 297.756 21.1574C295.704 12.4547 302.919 4.53068 312.097 2.52548C323.098 0.124012 335.343 9.42401 337.858 18.6052C338.141 19.6401 340.045 19.8812 341.051 19.8812L530.049 19.5041C533.864 19.5041 534.058 17.2307 530.175 17.2307L343.84 16.9187C339.215 4.86401 324.048 -1.79745 309.927 0.424015C295.163 2.74948 283.897 18.8292 296.501 29.1573Z" fill="#AC9104"/>
<path d="M255.319 29.1573C246.997 35.976 228.034 35.4839 224.042 24.9359C219.401 12.6735 240.957 4.97599 248.208 14.7307C248.542 15.1187 248.835 15.5479 249.051 16.0385C250.045 18.2989 249.181 20.6896 247.126 21.3744C245.07 22.0615 242.599 20.7828 241.605 18.5229C241.072 17.3041 241.088 16.0588 241.529 15.0531C241.036 13.824 240.305 13.2932 238.816 12.9959C234.832 12.2077 231.771 15.4896 230.574 17.624C228.596 21.1651 229.503 25.2255 232.205 27.9656C238.862 34.7172 252.041 29.7443 254.065 21.1573C256.116 12.4547 248.901 4.53066 239.721 2.52546C228.722 0.123995 216.476 9.424 213.963 18.6052C213.679 19.6401 211.772 19.8812 210.769 19.8812L2.9513 19.5041C-0.864073 19.5041 -1.05829 17.2307 2.82434 17.2307L207.98 16.9187C212.601 4.86399 227.769 -1.79747 241.893 0.423996C256.657 2.74946 267.923 18.8292 255.319 29.1573Z" fill="#AC9104"/>
</svg>
