<svg width="622" height="13" viewBox="0 0 622 13" fill="none" xmlns="http://www.w3.org/2000/svg">
<path d="M362.982 11.4433C361.388 12.5722 359.356 11.8204 358.651 10.2575C358.377 9.64844 358.41 8.94821 358.679 8.34991C359.11 7.39371 360.655 7.30198 361.043 8.30134C361.165 8.61728 362.482 8.57232 362.338 8.20123C362.132 7.67248 361.699 7.34215 361.168 7.1671H364.897C365.063 8.76776 364.422 10.4212 362.982 11.4433ZM348.556 4.48256C351.472 3.05036 354.665 1.52762 358.011 1.25725C360.422 1.82018 362.445 2.80276 363.941 4.75292C364.243 5.14679 364.475 5.57603 364.638 6.02445H345.482C346.504 5.50589 347.527 4.98794 348.556 4.48256ZM329.242 12.1549C328.219 12.3785 327.197 12.4685 326.174 12.4703C330.602 11.5788 334.734 9.18441 338.645 7.1671H341.289C337.45 9.17542 333.525 11.2203 329.242 12.1549ZM314.605 8.57592C314.238 8.14488 313.961 7.66708 313.766 7.1671H332.629C331.679 7.6479 330.729 8.1293 329.773 8.59811C326.872 10.0213 323.68 11.4931 320.354 11.761C318.075 11.2431 316.145 10.3804 314.605 8.57592ZM323.298 12.2718C322.881 12.2173 322.464 12.1519 322.047 12.0824C326.436 11.3912 330.481 9.12926 334.325 7.1671H336.728C335.695 7.69226 334.661 8.21563 333.621 8.73059C330.452 10.3001 326.955 12.0068 323.307 12.2706C323.304 12.2712 323.301 12.2712 323.298 12.2718ZM349.449 0.707515C350.546 0.491096 351.663 0.441344 352.782 0.488705C348.15 1.16314 343.847 3.56353 339.815 5.59942C339.536 5.7409 339.258 5.88297 338.979 6.02445H336.539C340.643 3.87825 344.836 1.61755 349.449 0.707515ZM343.492 6.02445H340.85C345.401 3.62347 350.466 0.762076 355.702 0.819628C355.727 0.820228 355.74 0.816042 355.763 0.815442C355.875 0.834026 355.986 0.853807 356.097 0.872992C351.695 1.5786 347.661 3.90645 343.808 5.86261C343.703 5.91536 343.597 5.9705 343.492 6.02445ZM307.979 8.09334C306.577 10.1496 304.225 11.1526 301.766 11.7161C301.729 11.7239 301.694 11.7311 301.658 11.7389C297.981 11.3894 294.465 9.56391 291.281 7.96685C290.753 7.70187 290.227 7.43388 289.7 7.1671H308.479C308.341 7.49383 308.175 7.80618 307.979 8.09334ZM293.59 12.3306C289.029 11.6327 284.795 9.30611 280.748 7.1671H283.99C287.957 9.18801 292.13 11.586 296.631 12.4757C295.607 12.5194 294.586 12.4828 293.59 12.3306ZM257.818 6.02445C258.024 5.46692 258.31 4.93996 258.661 4.48075C260.109 2.59713 262.268 1.75544 264.581 1.22429C264.605 1.22789 264.627 1.23508 264.651 1.23688C268.419 1.50785 271.944 3.36509 275.201 4.99872C275.878 5.33804 276.551 5.68154 277.228 6.02445H257.818ZM261.355 8.26718C261.83 7.03881 263.604 7.81216 263.877 8.82831C264.022 9.36965 263.834 9.98835 263.611 10.4835C262.862 12.1471 260.544 12.2826 259.132 11.2802C257.715 10.2755 257.295 8.69402 257.524 7.1671H261.369C260.745 7.35654 260.219 7.70965 260.015 8.23601C259.918 8.4824 261.205 8.65146 261.355 8.26718ZM266.877 0.784853C266.963 0.805836 267.044 0.819627 267.106 0.818428C270.488 0.78126 273.936 2.19189 276.874 3.60311C278.508 4.38845 280.126 5.20434 281.74 6.02445H278.55C274.65 4.03652 270.548 1.67452 266.099 0.914353C266.358 0.867593 266.618 0.825619 266.877 0.784853ZM273.328 0.772881C277.779 1.65174 281.915 3.91602 285.904 6.02445H283.135C282.702 5.80444 282.27 5.58324 281.837 5.36442C277.959 3.40886 273.833 1.20212 269.402 0.516893C270.71 0.452747 272.022 0.514497 273.328 0.772881ZM298.721 12.2844C298.693 12.2796 298.664 12.2712 298.634 12.2688C295.067 12.011 291.616 10.2785 288.524 8.7462C287.474 8.22643 286.431 7.69766 285.387 7.1671H288.1C291.902 9.09808 295.862 11.2982 300.183 12.0428C299.699 12.1333 299.212 12.2173 298.721 12.2844ZM419.778 6.34519C419.025 6.3338 398.617 6.02445 375.555 6.02445H365.966C365.302 4.29251 363.687 2.84652 361.973 1.9179C359.754 0.715305 356.775 0.38559 354.265 0.112819C351.276 -0.213308 348.484 0.185945 345.642 1.0738C342.629 2.01441 339.847 3.51917 337.066 4.9184C336.339 5.28469 335.615 5.65516 334.89 6.02445H313.472C313.276 4.47655 313.838 2.8705 315.159 1.78421C316.66 0.551044 318.932 0.874781 319.717 2.61692C319.962 3.16006 319.955 3.74398 319.805 4.30391C319.576 5.1558 317.832 6.10659 317.323 4.79548C317.192 4.45497 315.903 4.34526 316.03 4.67198C316.716 6.4411 319.995 6.31222 320.949 4.9064C321.535 4.04192 321.166 2.82915 320.619 2.04201C319.986 1.13257 318.696 0.712926 317.607 0.513293C314.963 0.0306978 312.787 1.84477 312.225 4.11566C312.062 4.77571 312.061 5.41357 312.176 6.02445H310.186C310.35 4.86443 310.114 3.66365 309.371 2.56657C308.073 0.646382 305.422 0.0193043 303.205 0.809442C300.921 1.62416 300.352 4.60366 302.635 5.69895C303.741 6.2295 305.874 6.097 306.352 4.86384C306.469 4.56349 305.181 4.24696 305.042 4.60366C304.694 5.50531 303.314 5.69893 302.688 4.7781C302.349 4.27512 302.44 3.62706 302.57 3.08452C302.953 1.49405 305.172 0.476126 306.776 1.30883C308.62 2.26682 309.164 4.22356 308.823 6.02445H287.441C286.153 5.3704 284.865 4.71756 283.573 4.0719C280.637 2.60493 277.69 1.23029 274.437 0.455744C271.809 -0.170731 269.224 -0.0670233 266.58 0.301068C266.556 0.301068 266.534 0.299869 266.511 0.299869C266.349 0.301667 266.255 0.321457 266.213 0.352032C266.174 0.357428 266.138 0.362208 266.099 0.367604C265.457 0.464124 264.82 0.574424 264.193 0.705114C264.128 0.70991 264.08 0.720116 264.042 0.734504C262.026 1.16794 260.123 1.84775 258.528 3.15705C257.545 3.96338 256.819 4.95435 256.437 6.02445H247.445C224.384 6.02445 203.977 6.3338 203.223 6.34519C201.592 6.36977 -1.32867 6.83197 0.302012 6.86735C1.00001 6.88173 224.449 7.1671 247.445 7.1671H256.172C256.053 8.19164 256.246 9.25217 256.832 10.2689C258.045 12.3743 260.834 12.9379 263.109 12.1279C265.301 11.3462 266.179 8.38409 263.847 7.26543C263.769 7.22886 263.686 7.19648 263.6 7.1671H279.488C280.627 7.74502 281.765 8.32295 282.908 8.89367C285.763 10.3181 288.643 11.7113 291.806 12.4649C294.705 13.1555 297.439 13.1015 300.375 12.6597C303.128 12.2454 305.775 11.6214 307.895 9.87983C308.817 9.12386 309.502 8.18205 309.887 7.1671C310.932 7.1671 311.501 7.1671 311.501 7.1671C311.501 7.1671 311.863 7.1671 312.539 7.1671C313.231 8.68683 314.643 9.96796 316.153 10.8624C318.307 12.1369 321.193 12.5002 323.673 12.8228C326.683 13.2143 329.458 12.9505 332.353 12.098C335.496 11.1717 338.381 9.61365 341.264 8.16227C341.918 7.83255 342.571 7.49922 343.225 7.1671H359.038C358.336 7.35894 357.71 7.71684 357.391 8.18745C356.806 9.05012 357.203 10.2737 357.748 11.0554C358.412 12.011 359.865 12.3899 361.008 12.5008C363.584 12.7502 365.614 10.9529 366.156 8.75638C366.291 8.21144 366.318 7.68027 366.257 7.1671H375.555C398.551 7.1671 621.171 6.89612 621.87 6.88173C623.5 6.84636 421.407 6.36977 419.778 6.34519Z" fill="#FFD700"/>
</svg>
