<svg width="533" height="35" viewBox="0 0 533 35" fill="none" xmlns="http://www.w3.org/2000/svg">
<path d="M260.944 18.8255C260.944 19.0229 259.905 16.3228 257.83 10.716C257.66 10.2442 257.463 9.59579 257.231 8.78125C257.117 8.35618 257.003 8.14792 256.891 8.14792C256.862 8.14792 256.321 9.11458 255.272 11.0494C254.955 11.5958 254.558 12.2051 254.071 12.8718C253.704 13.3693 253.519 13.6666 253.519 13.7656C253.519 13.8146 253.973 14.8203 254.885 16.7786C256.023 19.2078 256.989 21.7521 257.787 24.4042C259.89 20.787 260.944 18.9239 260.944 18.8255ZM276.817 32.0307C276.817 32.3531 276.604 32.5135 276.178 32.5135C275.378 32.5135 273.76 31.7469 271.312 30.2078C267.446 27.7521 264.244 24.4161 261.711 20.1974C259.55 22.9562 258.466 27.2922 258.466 33.2214C258.466 33.2958 258.482 33.4078 258.509 33.5573C258.509 33.6827 258.509 33.7656 258.509 33.8171C258.509 34.0411 258.197 34.1999 257.572 34.3015C255.726 34.2734 254.655 34.2494 254.369 34.2266C253.718 34.1255 253.392 33.8666 253.392 33.4427C253.392 33.3666 253.42 33.1895 253.475 32.9051C253.533 32.6203 253.562 32.3666 253.562 32.1427C253.562 31.4479 253.377 30.1562 253.01 28.2734C252.469 25.4452 251.654 22.4812 250.574 19.3827L250.235 19.5281C249.181 22.6291 246.974 25.6453 243.619 28.5708C242.257 29.7624 240.903 30.7051 239.57 31.399C238.372 32.0198 237.446 32.3281 236.793 32.3281C236.565 32.3281 236.281 32.2682 235.941 32.1427V31.6562C239.012 30.7187 241.813 28.9562 244.346 26.3745C246.933 23.6999 248.711 20.6479 249.678 17.2239C248.514 14.2442 246.956 11.388 245.011 8.65045C243.058 5.90778 241.016 3.92912 238.883 2.71605L236.238 1.22912C236.238 0.956188 236.466 0.817116 236.924 0.817116C237.349 0.817116 238.189 1.10419 239.44 1.67498C241.029 2.36925 242.793 3.32552 244.732 4.53592C247.717 6.42139 250.418 9.11458 252.834 12.6119C254.431 10.776 255.48 8.10938 255.994 4.61192C256.136 4.19472 256.321 3.07445 256.552 1.26245C256.607 0.694721 256.752 0.358856 256.995 0.259922C257.238 0.158855 258.072 0.0853882 259.494 0.035923C259.523 0.035923 259.578 0.0255203 259.662 -8.01086e-05C259.72 -8.01086e-05 259.777 -8.01086e-05 259.836 -8.01086e-05C260.346 -8.01086e-05 260.671 0.325516 260.814 0.968182C260.988 2.03325 261.156 3.11192 261.329 4.20512C262.035 7.60152 262.961 10.6895 264.101 13.4657C264.273 13.3693 264.643 12.7734 265.212 11.6827C265.92 10.2932 266.718 9.05205 267.6 7.96245C269.418 5.72912 271.312 3.88272 273.274 2.42139C274.668 1.40419 275.509 0.893257 275.794 0.893257C275.989 0.893257 276.245 1.06818 276.56 1.41605L276.604 1.45045L274.853 2.60419C273.315 3.62285 271.838 4.88538 270.417 6.40152C268.71 8.21085 267.371 9.98379 266.406 11.7214C265.579 13.2051 265.169 14.3881 265.169 15.2521C265.169 16.3933 265.579 17.9682 266.406 19.9786C267.371 22.3562 268.652 24.6291 270.244 26.7838C271.669 28.716 273.162 30.0468 274.725 30.7656C276.121 31.4078 276.817 31.8307 276.817 32.0307Z" fill="#AC9104"/>
<path d="M236.499 5.18276C228.177 -1.63591 209.213 -1.14377 205.222 9.40423C200.581 21.6666 222.141 29.3641 229.388 19.6094C229.723 19.2214 230.017 18.7922 230.232 18.3016C231.223 16.0412 230.362 13.6505 228.306 12.9657C226.252 12.2786 223.779 13.5573 222.785 15.8172C222.251 17.036 222.271 18.2813 222.709 19.287C222.215 20.5161 221.487 21.0469 219.999 21.3442C216.011 22.1324 212.952 18.8505 211.755 16.7161C209.776 13.175 210.682 9.11463 213.384 6.3745C220.043 -0.377098 233.222 4.59583 235.244 13.1828C237.296 21.8854 230.081 29.8094 220.903 31.8146C209.902 34.2161 197.657 24.9161 195.142 15.7349C194.859 14.7 192.955 14.4589 191.949 14.4589L2.95138 14.836C-0.863992 14.836 -1.05805 17.1094 2.82476 17.1094L189.159 17.4214C193.785 29.4761 208.952 36.1376 223.073 33.9161C237.837 31.5906 249.103 15.5109 236.499 5.18276Z" fill="#AC9104"/>
<path d="M277.681 5.18276C286.003 -1.63591 304.966 -1.14377 308.958 9.40423C313.599 21.6666 292.043 29.3641 284.792 19.6094C284.458 19.2214 284.165 18.7922 283.949 18.3016C282.955 16.0412 283.819 13.6505 285.874 12.9657C287.929 12.2786 290.401 13.5573 291.395 15.8172C291.928 17.036 291.912 18.2813 291.471 19.287C291.964 20.5161 292.695 21.0469 294.184 21.3442C298.168 22.1324 301.229 18.8505 302.426 16.7161C304.404 13.175 303.497 9.11463 300.795 6.3745C294.138 -0.377098 280.959 4.59583 278.935 13.1828C276.884 21.8854 284.099 29.8094 293.279 31.8146C304.278 34.2161 316.524 24.9161 319.037 15.7349C319.321 14.7 321.228 14.4589 322.231 14.4589L530.049 14.836C533.864 14.836 534.058 17.1094 530.176 17.1094L325.02 17.4214C320.399 29.4761 305.231 36.1376 291.107 33.9161C276.343 31.5906 265.077 15.5109 277.681 5.18276Z" fill="#AC9104"/>
</svg>
