<svg width="148" height="20" viewBox="0 0 148 20" fill="none" xmlns="http://www.w3.org/2000/svg">
<path d="M73.2087 13.9554L75.3085 13.9519C76.1887 13.9554 76.6269 13.8129 76.6269 13.5331C76.6269 13.2584 75.6289 13.1163 73.6333 13.1182C72.3979 13.1204 71.7787 13.2914 71.7787 13.6422C71.7787 13.8484 72.256 13.9554 73.2087 13.9554ZM62.6796 15.3123C62.8717 15.3123 63.1151 15.4162 63.4069 15.6168C63.6979 15.8201 63.8574 15.9186 63.8868 15.9231C64.0363 15.9231 64.1303 15.7734 64.1765 15.4822C64.2204 15.0624 64.249 14.8393 64.2639 14.8121C64.3527 14.6317 64.535 14.4514 64.8132 14.267C65.0901 14.0865 65.3226 13.9973 65.5146 13.9973C65.9787 13.9946 66.3812 14.1336 66.7236 14.4015C67.0672 14.6784 67.2404 14.9599 67.2382 15.2516C67.2382 15.4602 67.1402 15.6563 66.9358 15.8346C66.7355 16.0176 66.5109 16.1109 66.252 16.1109C65.8974 16.1109 65.5102 15.9569 65.0954 15.6481C64.9455 15.7054 64.8704 15.7832 64.8704 15.8777C64.8704 16.2131 65.0514 16.6375 65.4192 17.1568C65.7822 17.6707 66.1263 17.9386 66.4564 17.9493C66.4252 17.7542 66.3667 17.5541 66.2767 17.3438C66.1905 17.1342 66.1435 17.0011 66.1435 16.9438C66.1435 16.5676 66.2318 16.3828 66.4085 16.3828C66.5465 16.3828 66.6875 16.5118 66.8378 16.7783C67.0312 17.1153 67.1925 17.3438 67.3296 17.4696C67.7607 17.8463 68.3571 18.0341 69.1156 18.0341C69.6095 18.0341 70.1017 17.8009 70.5895 17.3333C71.0839 16.8668 71.4403 16.2433 71.6645 15.4611C71.3243 15.2657 70.9789 15.0713 70.6322 14.8736C70.3993 14.7095 70.2793 14.4988 70.2793 14.2472C70.2793 13.6761 70.434 13.3003 70.7491 13.1163C70.9134 13.05 71.073 12.9743 71.2382 12.8973C71.4034 12.8212 71.4865 12.657 71.4865 12.4063C71.4843 11.9725 71.3753 11.6054 71.1534 11.2971C70.9275 10.9885 70.6594 10.8342 70.3452 10.8364C70.0336 10.8364 69.7519 10.9445 69.4975 11.1637C69.2426 11.3771 69.1156 11.6054 69.1156 11.84C69.1156 11.9531 69.1481 12.1263 69.2066 12.3544C69.2646 12.584 69.2971 12.7485 69.2953 12.8436C69.2953 13.0403 69.2329 13.2268 69.1068 13.4011C68.9811 13.5734 68.8563 13.6611 68.7363 13.6611C68.5161 13.6611 68.3338 13.4905 68.2028 13.1574C68.0679 12.7414 67.9339 12.3234 67.7985 11.9029C67.6645 11.5985 67.5278 11.2971 67.3942 11.0054C67.2457 10.6292 67.1709 10.2851 67.1709 9.97846C67.1709 9.2568 67.3832 8.60835 67.8055 8.04204C68.2353 7.48018 68.7438 7.19419 69.3415 7.19419C70.6225 7.19419 71.515 8.19516 72.0222 10.1878C72.085 10.4264 72.1281 10.8148 72.1575 11.3605C72.1879 11.7644 72.263 12.0512 72.3799 12.2185L72.5364 12.364C72.6401 12.3367 72.6911 12.2104 72.6911 11.9875C72.6911 9.48951 72.085 7.51886 70.8607 6.06827C70.2938 5.39729 69.5854 4.84907 68.7363 4.42493C67.8882 3.9977 67.1037 3.78211 66.3905 3.78211C66.2415 3.78211 66.0398 3.81643 65.7871 3.87891C65.5313 3.94227 65.3432 3.97438 65.2259 3.97438C65.091 3.90487 65.0224 3.83579 65.0259 3.76671C65.0224 3.72139 65.2738 3.41956 65.7647 2.8423C64.9275 1.85454 64.1329 1.35867 63.3696 1.35867C62.9842 1.35867 62.6278 1.42027 62.3008 1.53555C61.9695 1.65479 61.799 1.71594 61.7805 1.71594C61.5001 1.57691 61.3586 1.37187 61.3586 1.11008C61.3586 0.439545 61.806 0.107353 62.7003 0.107353C62.7627 0.107353 63.062 0.213833 63.5968 0.435146C63.8657 0.538982 64.1395 0.635778 64.4221 0.732136C64.764 0.85885 65.0549 0.997887 65.2914 1.151C65.5783 1.33228 65.9501 1.69262 66.4085 2.23776C66.7398 2.62891 67.0457 2.82338 67.3296 2.82338C67.4162 2.82338 67.5783 2.73363 67.8095 2.55103C68.042 2.37108 68.2072 2.27868 68.3109 2.27692C69.0237 2.27692 69.8038 2.71206 70.6339 3.57663C71.4874 4.4852 72.169 5.62257 72.6911 6.98467C72.9165 7.60206 73.0734 8.61798 73.1617 10.0405C73.1771 10.2938 73.1881 10.5565 73.1881 10.8342V11.1276C73.1881 11.8268 73.2896 12.2593 73.4997 12.4264C73.6016 12.1195 73.6535 11.84 73.6548 11.5892C73.6548 11.4646 73.6205 11.1391 73.5533 10.6089C73.4874 10.077 73.4526 9.60879 73.4526 9.20629V8.87146C73.4526 8.04649 73.2448 7.04724 72.8268 5.86764C72.4076 4.68892 72.2002 4.00782 72.2002 3.82743C72.2046 3.453 72.274 3.07901 72.4159 2.7081C72.5553 2.3394 72.6853 2.15417 72.8049 2.15417C72.8668 2.15417 72.9591 2.19288 73.0954 2.26944C73.2298 2.34644 73.3204 2.38472 73.3639 2.38472C73.4201 2.38472 73.4592 2.34952 73.4786 2.27692C73.3103 1.79162 73.2298 1.43699 73.2298 1.21524C73.2298 0.87821 73.3287 0.592216 73.5225 0.354626C73.7141 0.114393 73.947 0 74.2164 0C74.8062 0 75.1085 0.439543 75.1085 1.31863L75.1068 1.65126C75.1046 2.09697 75.1824 2.32092 75.3305 2.32312C75.363 2.32312 75.4065 2.31168 75.4649 2.29188C75.5251 2.27032 75.5682 2.25668 75.5999 2.25668C75.7488 2.25668 75.8851 2.37856 76.0103 2.61659C76.1395 2.8511 76.2019 3.12917 76.2019 3.45168C76.2019 4.13586 75.8886 5.23054 75.2645 6.73564C74.6818 8.145 74.3913 9.74954 74.3913 11.5487C74.3913 11.6324 74.3839 11.7317 74.3703 11.84C74.3703 11.9531 74.3703 12.0177 74.3703 12.0292C74.3703 12.2676 74.4608 12.412 74.6392 12.4696C74.9231 11.2003 75.214 9.92381 75.5129 8.63857C75.8113 7.48243 76.114 6.61605 76.43 6.04319C77.5282 4.09318 78.5394 3.11641 79.4667 3.11641C79.6618 3.11817 79.8517 3.15645 80.0385 3.23213C80.2221 3.31177 80.3114 3.34696 80.2929 3.34696C80.5034 3.34696 80.6647 3.18109 80.786 2.84362C80.9486 2.38472 81.0382 2.1502 81.0536 2.13173C81.6645 1.35427 82.9424 0.961805 84.8756 0.961805C85.5177 0.961805 86.0305 1.07972 86.4199 1.31863C86.8058 1.5549 87.0022 1.84837 87 2.19684C87 2.33632 86.9297 2.47491 86.7873 2.61659C86.6462 2.75518 86.5148 2.82338 86.3979 2.82338C86.3654 2.82338 86.1615 2.65619 85.7844 2.31916C85.4021 1.98961 84.9793 1.81802 84.521 1.81802C83.8785 1.82066 83.2896 1.93241 82.7517 2.15417C82.2599 2.36844 82.0173 2.58271 82.0173 2.80402C82.5069 3.33464 82.7517 3.71523 82.7517 3.95415C82.7517 4.14818 82.6713 4.24893 82.5091 4.25157C82.4014 4.24718 82.2841 4.23969 82.1483 4.22605C82.0156 4.21285 81.9259 4.20362 81.8837 4.20186C81.5849 4.20186 81.3296 4.25157 81.1217 4.33209C80.9881 4.39985 80.8563 4.46541 80.742 4.51908C80.5482 4.54636 80.354 4.56924 80.1624 4.58068C79.8477 4.63964 79.5291 4.76944 79.1977 4.98195C78.1246 5.66261 77.4091 6.33794 77.0527 7.00584C75.9031 9.18548 75.3305 10.887 75.3305 12.1127C75.3305 12.1713 75.4065 12.2509 75.5555 12.364C76.452 9.18429 77.439 7.59674 78.5276 7.59502C79.0338 7.59674 79.4636 7.83389 79.8134 8.31651C80.1659 8.79482 80.3386 9.42404 80.3386 10.1878C80.3386 11.1504 80.2367 11.9531 80.0385 12.5954C79.8385 13.2364 79.6003 13.5573 79.3318 13.5573C79.0338 13.5573 78.8268 13.376 78.7047 13.0144C78.9758 12.5925 79.1085 12.2936 79.1085 12.1127C79.1085 11.1795 78.7965 10.7105 78.1703 10.7105C77.6188 10.7105 77.2035 10.828 76.9205 11.0674C76.6783 11.2768 76.4028 11.7317 76.0907 12.4264C76.764 12.6196 77.2228 12.7961 77.4764 12.9492C77.7743 13.1317 77.9246 13.3672 77.9229 13.6611C77.9229 13.8986 77.8337 14.1516 77.6434 14.4244C77.457 14.6968 77.2624 14.8736 77.0527 14.9599C76.8418 15.04 76.6313 15.1266 76.4146 15.2172C76.1997 15.3094 76.0907 15.4544 76.0907 15.6481C76.0907 16.0154 76.3957 16.4973 77.0092 17.1153C77.6803 17.7948 78.2903 18.1397 78.8409 18.1397C79.5867 18.1397 80.3768 17.727 81.2096 16.9043C81.2703 16.9755 81.2975 17.0775 81.2975 17.2174C81.3006 17.5096 81.1639 17.749 80.8967 17.9315C80.5539 18.1806 80.3601 18.3343 80.3166 18.3879C80.3896 18.4187 80.4823 18.4333 80.5843 18.4333L80.7179 18.431C81.2988 18.4333 81.8328 18.1942 82.3157 17.7183C82.8018 17.2465 83.0444 16.73 83.0444 16.1712C83.0444 16.0726 83 15.9798 82.909 15.8892C82.8185 15.8012 82.7376 15.7519 82.6647 15.7519C82.6049 15.7536 82.4652 15.8323 82.2489 15.9846C82.0345 16.1352 81.8838 16.213 81.7884 16.213C81.1041 16.213 80.7627 15.8593 80.7627 15.1464C80.7627 14.8393 80.8172 14.5823 80.9196 14.3725C81.0224 14.1618 81.1419 14.0602 81.2773 14.0585C81.3076 14.0602 81.3481 14.0693 81.4008 14.0879C81.454 14.1121 81.4825 14.1203 81.4997 14.1203C81.5915 14.1203 81.7427 14.0944 81.9598 14.0365C82.1786 13.9823 82.3382 13.9554 82.4401 13.9519C82.858 13.9519 83.2325 14.168 83.5709 14.5908C83.9048 15.0198 84.1316 15.6142 84.2485 16.3828C85.0848 16.0726 85.6957 15.9209 86.0841 15.9231C86.4713 15.9186 86.7117 16.0951 86.7983 16.4418L86.5979 16.5478C86.3144 16.3516 86.1268 16.2433 86.0407 16.2148C85.5309 16.3529 85.0848 16.5653 84.6998 16.8634C84.4735 17.0301 84.1386 17.3262 83.6917 17.7508C83.2439 18.1775 82.8871 18.4798 82.6185 18.6598C82.0253 19.0662 81.3366 19.2682 80.5627 19.2673C78.5944 19.2673 77.2329 18.724 76.4722 17.6351C76.3364 17.4383 76.114 16.994 75.8003 16.294C75.6218 15.9054 75.4043 15.7122 75.1516 15.7153C74.9574 15.7122 74.7429 15.7734 74.5034 15.8997C74.6097 16.404 74.7495 16.961 74.9284 17.5739C75.0945 18.0618 75.1732 18.3464 75.1732 18.4333C75.1732 18.6663 75.0286 18.9875 74.7288 19.3954C74.4287 19.7967 74.2059 20 74.0565 20C73.9216 20 73.6856 19.7614 73.3415 19.2885C72.9978 18.8164 72.8268 18.4525 72.8268 18.2009C72.8268 17.8802 72.9345 17.4837 73.1507 17.0098C73.3692 16.5351 73.4786 16.2288 73.4786 16.0898C73.4786 15.9733 73.4162 15.8593 73.3067 15.7339C73.1973 15.6058 73.1041 15.5455 73.0303 15.5455C72.8668 15.5455 72.6388 15.7339 72.3571 16.1109C71.5533 17.1836 70.8765 17.9211 70.3237 18.3227C69.5775 18.8842 68.6875 19.1635 67.6398 19.1635C67.0892 19.1635 66.4867 19.029 65.8297 18.7526C65.1727 18.4832 64.6216 18.1397 64.1765 17.7203C64.1026 17.65 63.9598 17.4696 63.7493 17.1765C63.5871 16.9241 63.4003 16.7212 63.192 16.5676C62.6845 16.1804 62.3127 15.9838 62.0754 15.9846C61.955 15.9846 61.7875 16.0692 61.5709 16.2469C61.3564 16.4198 61.2422 16.5052 61.2268 16.5052C61.0778 16.5052 61 16.4581 61 16.3586C61.0018 15.6639 61.5621 15.3123 62.6796 15.3123Z" fill="#FFD700"/>
<path d="M147.314 9.61832C142.948 8.81185 138.752 10.2881 135.119 12.3134C132.733 13.6447 130.338 14.812 127.495 15.2159C124.494 15.6414 121.974 14.0256 120.935 11.6761C120.713 11.1754 118.791 11.1038 119.031 11.6452C120.757 15.5497 125.475 16.5414 129.755 15.7455C135.544 14.6701 140.385 9.1493 146.669 10.3087C147.59 10.479 148.773 9.88674 147.314 9.61832ZM27.0657 11.6761C26.0269 14.0256 23.5051 15.6414 20.505 15.2159C17.6619 14.812 15.2673 13.6447 12.8808 12.3134C9.24759 10.2881 5.05253 8.81185 0.686228 9.61832C-0.772956 9.88674 0.409871 10.479 1.33148 10.3087C7.61583 9.1493 12.4561 14.6701 18.2453 15.7455C22.526 16.5414 27.243 15.5497 28.9695 11.6452C29.2086 11.1038 27.2867 11.1754 27.0657 11.6761ZM114.844 10.1559C114.693 9.87151 114.479 9.60421 114.222 9.35464C116.093 8.75438 118.209 8.59164 120.168 8.82832C120.281 8.84246 120.402 8.86127 120.525 8.88265C118.563 8.96772 116.656 9.44883 114.844 10.1559ZM112.969 10.9773C112.442 11.2334 111.926 11.5041 111.42 11.7859C109.034 13.1158 106.639 14.2844 103.796 14.6874C102.219 14.9109 100.777 14.5673 99.6097 13.8532C101.437 14.1325 103.474 13.9007 105.061 13.5048C107.837 12.8113 110.134 11.0927 112.705 9.93934C112.905 10.2588 113.005 10.6057 112.969 10.9773ZM110.938 8.61941C111.015 8.63383 111.096 8.64107 111.176 8.64517C111.355 8.74104 111.524 8.84323 111.685 8.95044C109.113 9.91374 106.908 11.4992 104.351 12.5107C102.584 13.2088 100.082 13.5337 98.4424 12.4842C102.461 10.5356 106.308 7.76552 110.938 8.61941ZM97.0728 10.6546C98.6509 9.80875 100.194 8.88297 101.895 8.28665C103.835 7.60555 106.074 7.41786 108.136 7.66787C108.248 7.68154 108.368 7.6999 108.491 7.72172C105.246 7.86236 102.153 9.08183 99.3874 10.6242C98.7711 10.9681 98.1544 11.2996 97.5295 11.611C97.3215 11.3153 97.1697 10.9918 97.0728 10.6546ZM91.7637 13.5269C90.1864 13.75 88.745 13.4064 87.5781 12.6926C89.4049 12.9716 91.4423 12.7402 93.0291 12.3436C93.8885 12.129 94.7015 11.8143 95.4908 11.4498C95.5102 11.4792 95.5275 11.509 95.5474 11.5379C95.6906 11.8096 95.8541 12.0602 96.027 12.3018C94.6894 12.867 93.2925 13.31 91.7637 13.5269ZM122.97 9.78034C123.048 9.79476 123.128 9.80151 123.208 9.80589C124.601 10.5562 125.577 11.6845 124.643 13.0584C124.46 13.3281 124.504 13.9581 125.207 14.1951C125.822 14.403 126.535 13.7865 126.682 13.5707C128.354 11.1136 124.953 9.284 122.632 8.59602C119.651 7.71248 116.453 7.7269 113.423 8.42211C113.31 8.44783 113.2 8.47877 113.09 8.50734C112.295 8.03237 111.386 7.6682 110.6 7.43558C107.618 6.55155 104.42 6.56569 101.39 7.2607C99.803 7.62488 98.3892 8.28147 97.0114 9.00147C97.1467 8.34407 97.4685 7.72204 97.9689 7.23703C98.1812 7.03138 98.3278 6.38672 97.542 6.1891C96.9525 6.04078 96.1378 6.52378 95.9306 6.7247C94.9004 7.72252 94.6236 8.96048 94.9065 10.1255C94.0662 10.569 93.2142 10.9946 92.3185 11.349C90.4251 12.0981 87.6824 12.4195 86.0675 11.075C84.5145 9.78219 84.5599 7.4103 85.9365 6.07611C86.1488 5.87005 86.2954 5.22591 85.5096 5.02781C84.921 4.87953 84.1045 5.36294 83.8973 5.56425C82.4351 6.98147 82.4874 8.88454 83.5128 10.3733C85.3855 13.9243 89.9031 14.822 94.0234 14.0562C94.9761 13.8793 95.9021 13.5808 96.8142 13.2131C99.0501 15.3544 102.685 15.8434 106.056 15.2174C108.335 14.7939 110.468 13.6812 112.599 12.5584C112.69 12.7498 112.866 12.9301 113.174 13.0342C113.789 13.242 114.503 12.6256 114.65 12.4095C114.915 12.0193 115.051 11.6452 115.086 11.2888C117.565 10.1041 120.119 9.25418 122.97 9.78034Z" fill="#FFD700"/>
<path d="M55.8749 13.9584C54.324 13.7305 52.9065 13.2651 51.5496 12.6713C51.725 12.4175 51.8909 12.1537 52.0365 11.8682C52.0572 11.8378 52.0743 11.8067 52.0936 11.7762C52.8947 12.1588 53.7199 12.4897 54.5921 12.7152C56.2017 13.1319 58.2672 13.375 60.1204 13.0819C58.9367 13.8318 57.4749 14.1928 55.8749 13.9584ZM43.1059 12.8908C40.5114 11.8281 38.2739 10.1624 35.6653 9.15034C35.8285 9.03771 36.0009 8.93035 36.1812 8.82962C36.2632 8.82582 36.3453 8.81772 36.4251 8.80256C41.1212 7.90546 45.0232 10.8157 49.0997 12.8629C47.4374 13.9655 44.8972 13.6241 43.1059 12.8908ZM43.6693 15.1776C40.7851 14.7542 38.3559 13.5265 35.9342 12.1293C35.4218 11.8332 34.8979 11.5488 34.364 11.2801C34.3267 10.8896 34.4289 10.5254 34.6307 10.1898C37.2394 11.4014 39.5699 13.2066 42.3851 13.9351C43.9957 14.3511 46.0616 14.5946 47.9143 14.3012C46.7307 15.0514 45.2684 15.4124 43.6693 15.1776ZM27.0606 9.02204C29.0476 8.77339 31.1947 8.94437 33.0926 9.575C32.8316 9.8372 32.6153 10.118 32.4613 10.4168C30.6226 9.67395 28.6892 9.16849 26.6987 9.07912C26.8237 9.05666 26.9457 9.0369 27.0606 9.02204ZM39.2663 7.80288C41.3572 7.54021 43.6289 7.7374 45.5979 8.45297C47.3229 9.07946 48.8878 10.0525 50.4896 10.9412C50.3909 11.2955 50.2373 11.6349 50.0263 11.946C49.3919 11.6187 48.7654 11.2701 48.1403 10.9088C45.3346 9.28839 42.1974 8.0067 38.9061 7.85945C39.0307 7.83652 39.1518 7.81723 39.2663 7.80288ZM63.8543 5.5928C63.6442 5.3813 62.8168 4.87344 62.2188 5.02922C61.4221 5.23734 61.5708 5.91407 61.7862 6.13056C63.1822 7.53227 63.2283 10.0242 61.6528 11.3824C60.0155 12.795 57.2318 12.4572 55.3116 11.6703C54.403 11.2979 53.5383 10.8509 52.6858 10.3848C52.9723 9.16056 52.692 7.86029 51.6478 6.81197C51.4381 6.60089 50.6107 6.09345 50.0132 6.24927C49.2151 6.45689 49.3647 7.13417 49.5797 7.35023C50.0869 7.85979 50.4141 8.51329 50.5519 9.20396C49.1537 8.44752 47.7195 7.75771 46.109 7.3751C43.0353 6.64492 39.7914 6.63006 36.7664 7.55882C35.9697 7.80322 35.0466 8.18582 34.2407 8.68482C34.1284 8.6543 34.0179 8.6223 33.9033 8.59528C30.8297 7.86489 27.5853 7.84974 24.5604 8.77799C22.2066 9.50078 18.7561 11.4229 20.4526 14.0044C20.6018 14.2312 21.3248 14.8788 21.9496 14.6604C22.6612 14.4114 22.7077 13.7495 22.5212 13.4662C21.5727 12.0232 22.5638 10.8373 23.9764 10.0491C24.058 10.0445 24.1388 10.0374 24.2191 10.0222C27.1102 9.46945 29.7004 10.3624 32.2156 11.607C32.2503 11.9815 32.3898 12.3745 32.6587 12.7844C32.8088 13.0115 33.5313 13.6591 34.1556 13.4408C34.4675 13.3314 34.6461 13.1419 34.7391 12.9409C36.9011 14.1205 39.064 15.2895 41.3756 15.7345C44.7959 16.3921 48.4829 15.8784 50.7515 13.6283C51.6768 14.015 52.6156 14.3286 53.5826 14.5145C57.7614 15.319 62.3425 14.3763 64.243 10.649C65.2846 9.08406 65.3385 7.08305 63.8543 5.5928Z" fill="#FFD700"/>
</svg>
