<svg width="148" height="20" viewBox="0 0 148 20" fill="none" xmlns="http://www.w3.org/2000/svg">
<path d="M74.7913 6.04465L72.6915 6.04808C71.8113 6.04464 71.3731 6.18711 71.3731 6.46694C71.3731 6.74158 72.3711 6.8837 74.3667 6.8818C75.6021 6.87956 76.2213 6.70858 76.2213 6.35778C76.2213 6.15156 75.744 6.04465 74.7913 6.04465ZM85.3204 4.68773C85.1283 4.68773 84.8849 4.58376 84.5931 4.38317C84.3021 4.17986 84.1426 4.08139 84.1132 4.0769C83.9637 4.0769 83.8697 4.22663 83.8235 4.51777C83.7796 4.93764 83.751 5.16071 83.7361 5.18786C83.6473 5.36834 83.465 5.54861 83.1868 5.73305C82.9099 5.91349 82.6774 6.00271 82.4854 6.00271C82.0213 6.00544 81.6188 5.86641 81.2764 5.59846C80.9328 5.32157 80.7596 5.04007 80.7618 4.74841C80.7618 4.53976 80.8598 4.34366 81.0642 4.16543C81.2645 3.98239 81.4891 3.88907 81.748 3.88907C82.1026 3.88907 82.4898 4.04306 82.9046 4.35189C83.0545 4.29465 83.1296 4.21682 83.1296 4.12226C83.1296 3.78695 82.9486 3.36245 82.5808 2.84323C82.2178 2.32932 81.8737 2.06142 81.5436 2.05073C81.5748 2.24582 81.6333 2.44587 81.7233 2.65623C81.8095 2.86575 81.8565 2.99894 81.8565 3.05618C81.8565 3.43241 81.7682 3.61716 81.5915 3.61716C81.4535 3.61716 81.3125 3.48825 81.1622 3.2217C80.9688 2.88467 80.8075 2.65623 80.6704 2.53044C80.2393 2.15368 79.6429 1.96585 78.8844 1.96585C78.3905 1.96585 77.8983 2.19909 77.4105 2.6667C76.9161 3.13318 76.5597 3.75672 76.3355 4.53888C76.6757 4.73432 77.0211 4.92871 77.3678 5.12635C77.6007 5.29047 77.7207 5.50118 77.7207 5.7528C77.7207 6.32395 77.566 6.69965 77.2509 6.8837C77.0866 6.95005 76.927 7.02568 76.7618 7.10268C76.5966 7.17879 76.5135 7.34295 76.5135 7.5937C76.5157 8.02748 76.6247 8.39461 76.8466 8.70295C77.0725 9.01147 77.3406 9.16577 77.6548 9.16357C77.9664 9.16357 78.2481 9.05546 78.5025 8.8363C78.7574 8.62287 78.8844 8.39461 78.8844 8.16001C78.8844 8.04693 78.8519 7.87366 78.7934 7.64562C78.7354 7.41599 78.7029 7.25152 78.7047 7.15644C78.7047 6.95968 78.7671 6.77317 78.8932 6.59894C79.0189 6.42655 79.1437 6.33886 79.2637 6.33886C79.4839 6.33886 79.6662 6.50953 79.7972 6.84265C79.9321 7.25857 80.0661 7.67655 80.2015 8.09709C80.3355 8.40147 80.4722 8.70295 80.6058 8.99461C80.7543 9.37084 80.8291 9.71491 80.8291 10.0215C80.8291 10.7432 80.6168 11.3917 80.1945 11.958C79.7647 12.5198 79.2562 12.8058 78.6585 12.8058C77.3775 12.8058 76.485 11.8048 75.9778 9.81219C75.915 9.57363 75.8719 9.18521 75.8425 8.6395C75.8121 8.23564 75.737 7.94877 75.6201 7.78153L75.4636 7.63598C75.3599 7.66331 75.3089 7.78963 75.3089 8.01252C75.3089 10.5105 75.915 12.4811 77.1393 13.9317C77.7062 14.6027 78.4146 15.1509 79.2637 15.5751C80.1118 16.0023 80.8963 16.2179 81.6095 16.2179C81.7585 16.2179 81.9602 16.1836 82.2129 16.1211C82.4687 16.0577 82.6568 16.0256 82.7741 16.0256C82.909 16.0951 82.9776 16.1642 82.9741 16.2333C82.9776 16.2786 82.7262 16.5804 82.2353 17.1577C83.0725 18.1455 83.8671 18.6413 84.6304 18.6413C85.0158 18.6413 85.3722 18.5797 85.6992 18.4645C86.0305 18.3452 86.201 18.2841 86.2195 18.2841C86.4999 18.4231 86.6414 18.6281 86.6414 18.8899C86.6414 19.5605 86.194 19.8926 85.2997 19.8926C85.2373 19.8926 84.938 19.7862 84.4032 19.5649C84.1343 19.461 83.8605 19.3642 83.5779 19.2679C83.236 19.1412 82.9451 19.0021 82.7086 18.849C82.4217 18.6677 82.0499 18.3074 81.5915 17.7622C81.2602 17.3711 80.9543 17.1766 80.6704 17.1766C80.5838 17.1766 80.4217 17.2664 80.1905 17.449C79.958 17.6289 79.7928 17.7213 79.6891 17.7231C78.9763 17.7231 78.1962 17.2879 77.3661 16.4234C76.5126 15.5148 75.831 14.3774 75.3089 13.0153C75.0835 12.3979 74.9266 11.382 74.8383 9.95946C74.8229 9.70616 74.8119 9.44353 74.8119 9.16577L74.8119 8.87238C74.8119 8.17325 74.7104 7.74066 74.5003 7.57359C74.3984 7.88053 74.3465 8.16 74.3452 8.41075C74.3452 8.53536 74.3795 8.8609 74.4467 9.39108C74.5126 9.92302 74.5474 10.3912 74.5474 10.7937L74.5474 11.1285C74.5474 11.9535 74.7552 12.9528 75.1731 14.1324C75.5924 15.3111 75.7998 15.9922 75.7998 16.1726C75.7954 16.547 75.726 16.921 75.5841 17.2919C75.4447 17.6606 75.3147 17.8458 75.1951 17.8458C75.1332 17.8458 75.0409 17.8071 74.9046 17.7306C74.7702 17.6536 74.6796 17.6153 74.6361 17.6153C74.5799 17.6153 74.5408 17.6505 74.5214 17.7231C74.6897 18.2084 74.7702 18.563 74.7702 18.7848C74.7702 19.1218 74.6713 19.4078 74.4775 19.6454C74.2859 19.8856 74.053 20 73.7836 20C73.1938 20 72.8915 19.5605 72.8915 18.6814L72.8932 18.3487C72.8954 17.903 72.8176 17.6791 72.6695 17.6769C72.637 17.6769 72.5935 17.6883 72.5351 17.7081C72.4749 17.7297 72.4318 17.7433 72.4001 17.7433C72.2512 17.7433 72.1149 17.6214 71.9897 17.3834C71.8605 17.1489 71.7981 16.8708 71.7981 16.5483C71.7981 15.8641 72.1114 14.7695 72.7355 13.2644C73.3182 11.855 73.6087 10.2505 73.6087 8.45132C73.6087 8.36763 73.6161 8.26829 73.6297 8.16001C73.6297 8.04693 73.6297 7.98229 73.6297 7.97077C73.6297 7.73238 73.5392 7.58802 73.3608 7.53043C73.0769 8.7997 72.786 10.0762 72.4871 11.3614C72.1887 12.5176 71.886 13.3839 71.57 13.9568C70.4718 15.9068 69.4606 16.8836 68.5333 16.8836C68.3382 16.8818 68.1483 16.8435 67.9615 16.7679C67.7779 16.6882 67.6886 16.653 67.7071 16.653C67.4966 16.653 67.3353 16.8189 67.214 17.1564C67.0514 17.6153 66.9618 17.8498 66.9464 17.8683C66.3355 18.6457 65.0576 19.0382 63.1244 19.0382C62.4823 19.0382 61.9695 18.9203 61.5801 18.6814C61.1942 18.4451 60.9978 18.1516 61 17.8032C61 17.6637 61.0703 17.5251 61.2127 17.3834C61.3538 17.2448 61.4852 17.1766 61.6021 17.1766C61.6346 17.1766 61.8385 17.3438 62.2156 17.6808C62.5979 18.0104 63.0207 18.182 63.479 18.182C64.1215 18.1793 64.7104 18.0676 65.2483 17.8458C65.7401 17.6316 65.9827 17.4173 65.9827 17.196C65.4931 16.6654 65.2483 16.2848 65.2483 16.0459C65.2483 15.8518 65.3287 15.7511 65.4909 15.7484C65.5986 15.7528 65.7159 15.7603 65.8517 15.7739C65.9844 15.7871 66.0741 15.7964 66.1163 15.7981C66.4151 15.7981 66.6704 15.7484 66.8783 15.6679C67.0119 15.6002 67.1437 15.5346 67.258 15.4809C67.4518 15.4536 67.646 15.4308 67.8376 15.4193C68.1523 15.3604 68.4709 15.2306 68.8023 15.0181C69.8754 14.3374 70.5909 13.6621 70.9473 12.9942C72.0969 10.8145 72.6695 9.11301 72.6695 7.88726C72.6695 7.82865 72.5935 7.74906 72.4445 7.63598C71.548 10.8157 70.561 12.4033 69.4724 12.405C68.9662 12.4033 68.5364 12.1661 68.1866 11.6835C67.8341 11.2052 67.6614 10.576 67.6614 9.81219C67.6614 8.84955 67.7634 8.04693 67.9615 7.40464C68.1615 6.76358 68.3997 6.4427 68.6682 6.4427C68.9662 6.4427 69.1732 6.62402 69.2953 6.98564C69.0242 7.40754 68.8915 7.70643 68.8915 7.88726C68.8915 8.82051 69.2035 9.28953 69.8297 9.28953C70.3812 9.28953 70.7965 9.17197 71.0796 8.93258C71.3217 8.72323 71.5972 8.26829 71.9093 7.57359C71.236 7.38039 70.7772 7.20392 70.5236 7.05076C70.2257 6.86825 70.0754 6.63277 70.0771 6.33886C70.0771 6.10136 70.1663 5.84837 70.3566 5.57562C70.543 5.30318 70.7376 5.12635 70.9473 5.04007C71.1582 4.95999 71.3687 4.87336 71.5854 4.78277C71.8003 4.69064 71.9093 4.54561 71.9093 4.35189C71.9093 3.98463 71.6043 3.50267 70.9908 2.88467C70.3197 2.20525 69.7097 1.8603 69.1591 1.8603C68.4133 1.8603 67.6232 2.27296 66.7904 3.09569C66.7297 3.02454 66.7025 2.92247 66.7025 2.78255C66.6994 2.4904 66.8361 2.25096 67.1033 2.06846C67.4461 1.81943 67.6399 1.66574 67.6834 1.61215C67.6104 1.58135 67.5177 1.56674 67.4157 1.56674L67.2821 1.56898C66.7012 1.56674 66.1672 1.80583 65.6843 2.28172C65.1982 2.75351 64.9556 3.26997 64.9556 3.82875C64.9556 3.92739 65 4.02018 65.091 4.11078C65.1815 4.19877 65.2624 4.2481 65.3353 4.2481C65.3951 4.24638 65.5348 4.16767 65.7511 4.01539C65.9655 3.86483 66.1162 3.78695 66.2116 3.78695C66.8959 3.78695 67.2373 4.14065 67.2373 4.8536C67.2373 5.16071 67.1828 5.41766 67.0804 5.62749C66.9776 5.8382 66.8581 5.9398 66.7227 5.94151C66.6924 5.9398 66.6519 5.93069 66.5992 5.91212C66.546 5.88788 66.5175 5.87965 66.5003 5.87965C66.4085 5.87965 66.2573 5.90561 66.0402 5.96351C65.8214 6.01767 65.6618 6.04464 65.5599 6.04808C65.142 6.04808 64.7675 5.83204 64.4291 5.40922C64.0952 4.98023 63.8684 4.38577 63.7515 3.61716C62.9152 3.92739 62.3043 4.07914 61.9159 4.0769C61.5287 4.08139 61.2883 3.90486 61.2017 3.5582L61.4021 3.45216C61.6856 3.64844 61.8732 3.75672 61.9594 3.78523C62.4691 3.64708 62.9152 3.43465 63.3002 3.13661C63.5265 2.9699 63.8614 2.67379 64.3083 2.24924C64.7561 1.8225 65.1129 1.52019 65.3815 1.34024C65.9747 0.933778 66.6634 0.731824 67.4373 0.73266C69.4056 0.732661 70.7671 1.27596 71.5278 2.36492C71.6636 2.56172 71.886 3.00598 72.1997 3.70604C72.3782 4.09463 72.5957 4.28778 72.8484 4.2847C73.0426 4.28778 73.2571 4.22663 73.4966 4.10026C73.3903 3.59604 73.2505 3.03897 73.0716 2.42612C72.9055 1.93818 72.8268 1.65355 72.8268 1.56674C72.8268 1.33373 72.9714 1.01249 73.2712 0.604626C73.5713 0.203316 73.7941 -1.1545e-06 73.9435 -1.14143e-06C74.0784 -1.12964e-06 74.3144 0.238559 74.6585 0.711543C75.0022 1.18365 75.1732 1.54751 75.1732 1.79914C75.1732 2.11985 75.0655 2.51632 74.8493 2.99018C74.6308 3.46488 74.5214 3.77115 74.5214 3.91019C74.5214 4.02674 74.5838 4.14065 74.6933 4.26614C74.8027 4.39417 74.8959 4.4545 74.9697 4.4545C75.1332 4.4545 75.3612 4.26614 75.6429 3.88907C76.4467 2.81643 77.1235 2.07893 77.6763 1.67726C78.4225 1.11576 79.3125 0.8365 80.3602 0.8365C80.9108 0.8365 81.5133 0.971046 82.1703 1.24744C82.8273 1.51676 83.3784 1.8603 83.8235 2.27969C83.8974 2.34996 84.0402 2.53044 84.2507 2.82347C84.4129 3.07593 84.5997 3.27877 84.808 3.43241C85.3155 3.81964 85.6873 4.01623 85.9246 4.01539C86.045 4.01539 86.2125 3.93083 86.4291 3.75312C86.6436 3.5802 86.7578 3.4948 86.7732 3.4948C86.9222 3.4948 87 3.54188 87 3.64141C86.9982 4.3361 86.4379 4.68773 85.3204 4.68773Z" fill="#FFD700"/>
<path d="M0.685714 10.3817C5.05159 11.1882 9.24794 9.71191 12.8808 7.68656C15.2667 6.35533 17.6622 5.18801 20.5045 4.78413C23.5059 4.3586 26.0264 5.9744 27.0652 8.32386C27.2871 8.82458 29.2086 8.89615 28.9694 8.35476C27.2434 4.45025 22.5255 3.45857 18.2448 4.25452C12.4556 5.3299 7.61534 10.8507 1.33142 9.69133C0.409805 9.52103 -0.772599 10.1133 0.685714 10.3817ZM120.934 8.32387C121.973 5.97441 124.495 4.3586 127.495 4.78414C130.338 5.18802 132.733 6.35534 135.119 7.68657C138.752 9.71192 142.947 11.1882 147.314 10.3817C148.773 10.1133 147.59 9.52105 146.669 9.69134C140.384 10.8507 135.544 5.32991 129.755 4.25453C125.474 3.45858 120.757 4.45026 119.031 8.35477C118.791 8.89616 120.713 8.82459 120.934 8.32387ZM33.1562 9.84407C33.3072 10.1285 33.5212 10.3958 33.7781 10.6454C31.9072 11.2456 29.7907 11.4084 27.832 11.1717C27.7187 11.1575 27.5984 11.1387 27.4752 11.1173C29.4373 11.0323 31.3437 10.5512 33.1562 9.84407ZM35.0315 9.02265C35.5578 8.76664 36.0742 8.49589 36.5802 8.21412C38.9662 6.88418 41.3612 5.71558 44.2043 5.31262C45.7812 5.08913 47.223 5.43273 48.3903 6.14674C46.5631 5.86751 44.5257 6.09933 42.9389 6.49521C40.1628 7.18869 37.8659 8.90728 35.2953 10.0607C35.0955 9.74124 34.9947 9.39434 35.0315 9.02265ZM37.0624 11.3806C36.9845 11.3662 36.9037 11.3589 36.8237 11.3548C36.6455 11.259 36.4755 11.1568 36.3146 11.0496C38.8866 10.0863 41.0922 8.50075 43.649 7.48926C45.4157 6.79124 47.9185 6.46632 49.5576 7.51578C45.5385 9.46438 41.6925 12.2345 37.0624 11.3806ZM50.9272 9.3454C49.3491 10.1913 47.806 11.117 46.1051 11.7133C44.165 12.3945 41.9256 12.5821 39.8644 12.3321C39.7515 12.3185 39.6322 12.3001 39.5093 12.2783C42.7542 12.1376 45.8473 10.9182 48.6126 9.37582C49.2289 9.03193 49.8456 8.70042 50.4705 8.389C50.6785 8.68471 50.8303 9.00822 50.9272 9.3454ZM56.2363 6.47307C57.8136 6.25001 59.255 6.59362 60.4219 7.30735C58.5951 7.0284 56.5577 7.25978 54.9709 7.65642C54.1115 7.871 53.2985 8.18571 52.5092 8.55022C52.4898 8.52084 52.4725 8.49102 52.4526 8.46213C52.3094 8.19042 52.1459 7.93975 51.973 7.69817C53.3106 7.13296 54.7075 6.69002 56.2363 6.47307ZM25.0299 10.2197C24.9517 10.2052 24.8721 10.1985 24.7917 10.1941C23.3991 9.44381 22.4225 8.31554 23.3571 6.9416C23.5401 6.67194 23.4955 6.0419 22.7932 5.80486C22.1782 5.59704 21.465 6.21345 21.318 6.42927C19.6456 8.88642 23.0475 10.716 25.3682 11.404C28.3492 12.2875 31.5465 12.2731 34.5774 11.5779C34.6898 11.5522 34.7997 11.5212 34.9099 11.4927C35.7048 11.9676 36.6139 12.3318 37.4001 12.5644C40.3821 13.4485 43.5803 13.4343 46.6102 12.7393C48.197 12.3751 49.6108 11.7185 50.9886 10.9985C50.8533 11.6559 50.5315 12.278 50.0311 12.763C49.8188 12.9686 49.6722 13.6133 50.458 13.8109C51.0475 13.9592 51.8622 13.4762 52.0694 13.2753C53.0996 12.2775 53.3763 11.0395 53.0935 9.87453C53.9338 9.43095 54.7858 9.00541 55.6815 8.65096C57.5749 7.90194 60.3176 7.58048 61.9325 8.92504C63.4855 10.2178 63.4401 12.5897 62.0635 13.9239C61.8512 14.13 61.7046 14.7741 62.4904 14.9722C63.079 15.1205 63.8955 14.6371 64.1027 14.4358C65.5649 13.0185 65.5126 11.1155 64.4872 9.62668C62.6145 6.07566 58.0969 5.17797 53.9766 5.94378C53.0239 6.1207 52.0979 6.41923 51.1858 6.78686C48.9499 4.64554 45.3149 4.1566 41.9442 4.78257C39.665 5.20606 37.5325 6.31877 35.4008 7.44156C35.31 7.25021 35.1339 7.06987 34.8256 6.96579C34.2106 6.75797 33.4975 7.37438 33.35 7.59052C33.0849 7.98074 32.9486 8.35476 32.9136 8.71123C30.4346 9.89587 27.8813 10.7458 25.0299 10.2197Z" fill="#FFD700"/>
<path d="M92.1251 6.04159C93.676 6.26951 95.0935 6.73487 96.4504 7.32868C96.275 7.58249 96.1091 7.84634 95.9635 8.13181C95.9428 8.16216 95.9257 8.19332 95.9064 8.22384C95.1053 7.84123 94.2801 7.51026 93.4079 7.28482C91.7983 6.8681 89.7328 6.62502 87.8796 6.91808C89.0633 6.16824 90.5251 5.80724 92.1251 6.04159ZM104.894 7.1092C107.489 8.17187 109.726 9.83761 112.335 10.8497C112.172 10.9623 111.999 11.0697 111.819 11.1704C111.737 11.1742 111.655 11.1823 111.575 11.1974C106.879 12.0945 102.977 9.18426 98.9003 7.13706C100.563 6.0345 103.103 6.37586 104.894 7.1092ZM104.331 4.82242C107.215 5.24577 109.644 6.4735 112.066 7.87074C112.578 8.16676 113.102 8.45122 113.636 8.71988C113.673 9.11039 113.571 9.47463 113.369 9.81025C110.761 8.59864 108.43 6.79342 105.615 6.06485C104.004 5.64893 101.938 5.40539 100.086 5.69875C101.269 4.94861 102.732 4.58761 104.331 4.82242ZM120.939 10.978C118.952 11.2266 116.805 11.0556 114.907 10.425C115.168 10.1628 115.385 9.88198 115.539 9.58317C117.377 10.3261 119.311 10.8315 121.301 10.9209C121.176 10.9433 121.054 10.9631 120.939 10.978ZM108.734 12.1971C106.643 12.4598 104.371 12.2626 102.402 11.547C100.677 10.9205 99.1122 9.94745 97.5104 9.05876C97.6091 8.70452 97.7627 8.36514 97.9737 8.05396C98.6081 8.38131 99.2346 8.72993 99.8597 9.09122C102.665 10.7116 105.803 11.9933 109.094 12.1406C108.969 12.1635 108.848 12.1828 108.734 12.1971ZM84.1457 14.4072C84.3558 14.6187 85.1832 15.1266 85.7812 14.9708C86.5779 14.7627 86.4292 14.0859 86.2138 13.8694C84.8178 12.4677 84.7717 9.97582 86.3472 8.61763C87.9845 7.20503 90.7682 7.54276 92.6884 8.32968C93.597 8.70207 94.4617 9.14914 95.3142 9.61517C95.0277 10.8394 95.308 12.1397 96.3522 13.188C96.5619 13.3991 97.3893 13.9066 97.9868 13.7507C98.7849 13.5431 98.6353 12.8658 98.4203 12.6498C97.9131 12.1402 97.5859 11.4867 97.4481 10.796C98.8463 11.5525 100.28 12.2423 101.891 12.6249C104.965 13.3551 108.209 13.3699 111.234 12.4412C112.03 12.1968 112.953 11.8142 113.759 11.3152C113.872 11.3457 113.982 11.3777 114.097 11.4047C117.17 12.1351 120.415 12.1503 123.44 11.222C125.793 10.4992 129.244 8.57707 127.547 5.99558C127.398 5.76883 126.675 5.12123 126.05 5.33957C125.339 5.58861 125.292 6.25052 125.479 6.53383C126.427 7.97679 125.436 9.16265 124.024 9.95092C123.942 9.95552 123.861 9.96261 123.781 9.97777C120.89 10.5305 118.3 9.63759 115.784 8.393C115.75 8.0185 115.61 7.62555 115.341 7.21559C115.191 6.9885 114.469 6.3409 113.844 6.55925C113.532 6.66859 113.354 6.85806 113.261 7.05909C111.099 5.87948 108.936 4.71046 106.624 4.26554C103.204 3.6079 99.5171 4.12158 97.2485 6.37172C96.3232 5.98502 95.3844 5.67139 94.4174 5.48551C90.2386 4.68095 85.6575 5.62373 83.757 9.35098C82.7154 10.9159 82.6615 12.917 84.1457 14.4072Z" fill="#FFD700"/>
</svg>
