<svg width="163" height="157" viewBox="0 0 163 157" fill="none" xmlns="http://www.w3.org/2000/svg">
<g clip-path="url(#clip0_3_55)">
<path d="M153.685 55.2055C151.168 54.6206 148.621 54.177 146.055 53.8769C152.995 53.0907 156.813 54.4979 161.306 59.9069C161.365 57.8796 160.735 55.8925 159.52 54.2712C158.305 52.65 156.576 51.4908 154.618 50.9837C151.866 50.2683 148.808 49.7416 146.063 50.1976C140.473 51.141 135.007 52.8391 129.464 54.1284C128.68 54.3171 127.441 54.3879 126.955 53.9319C119.788 47.1943 112.754 40.331 107.352 31.9975C102.067 23.8212 98.6562 15.1104 99.5109 5.12589C99.6599 3.41988 99.5109 1.69028 99.5109 -0.0235863C97.3538 2.11163 96.1202 5.01153 96.0765 8.05048C96.0765 43.8007 96.1079 79.5456 96.1706 115.285C96.2359 115.907 96.0996 116.534 95.7818 117.072C95.464 117.61 94.9817 118.031 94.4064 118.273C90.9563 120.183 87.6082 122.274 84.213 124.319C82.3311 125.458 80.465 126.638 78.4812 127.864C75.6584 119.869 77.2815 112.188 78.34 104.428C77.7178 105.031 77.2103 105.742 76.8424 106.527C73.5727 113.603 73.0395 121.103 73.2355 128.753C73.2355 129.68 72.8905 131.111 72.2319 131.496C65.3631 135.498 58.118 138.43 50.0887 139.193C35.4965 140.585 22.7391 131.19 20.2064 116.905C19.4223 112.345 19.3204 107.824 22.7783 103.894C24.9933 101.412 27.7196 99.4431 30.7685 98.1223C33.8174 96.8015 37.1161 96.1607 40.4364 96.2441V87.9027C34.5147 88.6096 29.0935 91.5808 25.3031 96.1969C21.5743 100.791 18.9192 106.163 17.5326 111.92C17.0677 113.799 16.9455 115.746 17.1719 117.667C17.8776 124.256 20.2064 130.176 24.9581 134.963C25.1957 135.255 25.4057 135.568 25.5854 135.899C21.1081 132.833 18.6774 128.352 16.6466 123.532C16.556 124.235 16.5851 124.947 16.7328 125.639C19.8222 140.537 33.3794 149.822 48.5675 147.519C56.3302 146.339 63.4107 143.352 70.1226 139.429C77.1325 135.325 83.9621 130.915 91.0034 126.85C96.249 123.831 101.761 121.237 107.924 120.899C110.236 120.857 112.538 121.224 114.723 121.984C117.138 122.77 118.345 124.845 118.855 127.487C120.053 125.463 121.029 123.315 121.764 121.079C122.619 118.257 121.717 115.616 119.161 114.177C117.412 113.194 115.24 112.274 113.303 112.447C109.516 112.793 105.792 113.894 102.044 114.719C101.244 114.948 100.459 115.224 99.6913 115.545V89.6009C108.395 93.7912 116.495 98.351 122.909 105.403C126.766 109.656 129.628 114.436 130.75 120.168C131.887 126.158 129.621 130.333 123.936 132.589C119.396 134.389 114.942 133.863 110.606 131.952C106.786 130.272 103.659 127.324 101.753 123.603L96.5627 125.749C96.939 127.086 97.1743 128.265 97.6055 129.366C100.256 136.198 105.258 140.199 112.417 141.371C119.702 142.558 125.041 139.358 129.072 133.509C134.662 125.427 134.451 115.545 128.554 107.29C128.084 106.622 127.621 105.946 127.151 105.269L127.88 104.821L134.498 115.443C134.388 114.365 134.349 113.328 134.153 112.298C132.686 104.798 128.162 99.2237 122.783 94.2157C116.448 88.3037 108.865 84.4199 101.118 80.7878C99.0797 79.8365 98.766 77.4544 100.703 76.3695C108.544 71.959 116.299 67.3284 124.391 63.4289C131.403 59.8906 139.2 58.2048 147.043 58.531C154.445 58.9399 158.397 63.0201 157.935 70.3866C157.692 74.2782 156.468 78.1069 155.676 81.9592C155.465 82.9576 155.198 83.9482 154.955 84.9467L155.692 85.096C158.593 78.2641 161.863 71.4873 160.899 63.6884C160.35 59.4194 157.911 56.3612 153.685 55.2055ZM99.7462 70.5124V31.9896C104.529 42.7288 111.9 50.6693 119.702 58.3738L99.7462 70.5124ZM59.6705 123.666C59.2784 125.238 58.8864 126.724 58.4865 128.249C59.3951 127.722 60.085 126.885 60.4311 125.891C61.7436 122.171 62.8483 118.381 63.74 114.538C64.9632 108.249 64.3829 102.133 60.4938 96.7315C58.5136 93.9422 55.8935 91.6711 52.8545 90.1099C49.8154 88.5488 46.4464 87.7432 43.0317 87.7612V96.4563C44.4873 96.6594 45.9156 97.026 47.2895 97.5491C57.7337 101.543 62.705 111.991 59.6705 123.697V123.666Z" fill="url(#paint0_linear_3_55)"/>
<path d="M128.899 79.2233C140.582 88.4452 149.051 99.6011 148.039 115.042C146.871 132.754 139.132 146.387 120.65 151.575L120.933 152.118L130.507 149.13C113.201 163.006 83.4994 157.621 74.7096 138.391L80.8413 134.46C84.3802 139.109 89.0854 142.733 94.4769 144.964C109.03 150.729 122.621 148.923 135.25 139.547C143.876 133.132 146.001 124.547 143.68 114.436C141.327 104.161 135.533 96.1183 127.425 89.6952C125.559 88.2172 125.073 86.9121 126.076 84.8523C126.719 83.5551 127.213 82.1872 127.825 80.8743C128.145 80.3003 128.504 79.7487 128.899 79.2233Z" fill="url(#paint1_linear_3_55)"/>
<path d="M127.754 65.7167C130.311 64.8755 132.796 64.0107 135.313 63.2874C135.606 63.2338 135.907 63.2447 136.196 63.3194C136.484 63.394 136.753 63.5307 136.983 63.7198C148.557 74.7263 158.264 86.9514 161.573 103.029C165.305 121.158 161.894 137.66 149.349 151.772C147.708 153.431 145.961 154.98 144.119 156.41C143.71 156.763 143.198 156.973 142.66 157.008C144.566 154.563 146.581 152.204 148.361 149.665C154.916 140.231 158.97 129.948 158.844 118.304C158.727 108.493 155.151 99.7347 150.219 91.4641C145.122 82.9969 138.23 76.1415 131.173 69.3803C130.013 68.2797 129.001 67.0611 127.754 65.7167Z" fill="url(#paint2_linear_3_55)"/>
<path d="M8.8526 17.9249C8.75063 18.2919 8.5133 18.6064 8.1887 18.8046C7.8641 19.0027 7.4765 19.0697 7.10445 18.992C6.73241 18.9143 6.40374 18.6977 6.18505 18.3861C5.96636 18.0745 5.87401 17.6911 5.9267 17.3138C5.97939 16.9364 6.17318 16.5933 6.46881 16.3538C6.76445 16.1144 7.13981 15.9966 7.51883 16.0243C7.89785 16.0521 8.25219 16.2232 8.51004 16.5031C8.76789 16.783 8.90998 17.1508 8.90749 17.5318C8.90666 17.6456 8.89351 17.7589 8.86828 17.8698C8.64089 17.7126 8.5076 17.6104 8.45271 17.5632C8.57967 17.6907 8.71314 17.8114 8.8526 17.9249Z" fill="url(#paint3_linear_3_55)"/>
<path d="M78.2616 17.5318C78.2591 17.8959 78.1253 18.2468 77.885 18.5199C77.6448 18.7929 77.3141 18.9696 76.9541 19.0175C76.5941 19.0654 76.229 18.9812 75.926 18.7804C75.6231 18.5796 75.4027 18.2757 75.3056 17.9249C73.4002 19.4972 64.9083 24.8433 43.6512 19.1356H40.3736C19.2028 24.7961 10.7109 19.4344 8.81335 17.8934V17.8384C10.6482 19.057 18.6382 22.8857 40.3579 16.4626V12.7282H40.6716C40.3234 12.5079 40.0365 12.2027 39.8377 11.8411C39.6389 11.4796 39.5346 11.0734 39.5346 10.6606C39.5359 10.2338 39.6475 9.81473 39.8586 9.44413C40.0696 9.07354 40.3729 8.76412 40.7387 8.54608C41.1046 8.32803 41.5206 8.2088 41.9461 8.20003C42.3716 8.19125 42.7922 8.29323 43.1667 8.49601C43.5411 8.69879 43.8568 8.99544 44.0829 9.35702C44.3089 9.7186 44.4376 10.1328 44.4564 10.5591C44.4752 10.9854 44.3835 11.4094 44.1901 11.7895C43.9968 12.1697 43.7084 12.4931 43.3532 12.7282H43.6669V16.4626C65.4572 22.9328 73.4629 19.0963 75.3056 17.8698C75.2803 17.7589 75.2672 17.6456 75.2664 17.5318C75.2664 17.1315 75.425 16.7475 75.7073 16.4644C75.9896 16.1814 76.3726 16.0223 76.7718 16.0223C77.1711 16.0223 77.554 16.1814 77.8364 16.4644C78.1187 16.7475 78.2773 17.1315 78.2773 17.5318H78.2616Z" fill="url(#paint4_linear_3_55)"/>
<path d="M23.1939 40.5275C21.5316 44.3562 17.0779 47.0921 11.84 47.0921C6.60221 47.0921 2.15632 44.3562 0.494019 40.5275H23.1939Z" fill="url(#paint5_linear_3_55)"/>
<path d="M0.344971 40.4175C4.17664 33.6039 8.0083 26.7904 11.84 19.9768L23.3585 40.4175" stroke="url(#paint6_linear_3_55)" stroke-miterlimit="10"/>
<path d="M83.1545 40.5275C81.4922 44.3562 77.0384 47.0921 71.8006 47.0921C66.5628 47.0921 62.1169 44.3562 60.4546 40.5275H83.1545Z" fill="url(#paint7_linear_3_55)"/>
<path d="M60.2977 40.4175L71.8006 19.9768C75.6427 26.7904 79.4822 33.6039 83.3191 40.4175" stroke="url(#paint8_linear_3_55)" stroke-miterlimit="10"/>
<path d="M34.4928 25.5587C34.4928 24.9074 33.968 24.3794 33.3206 24.3794C32.6731 24.3794 32.1483 24.9074 32.1483 25.5587V67.2026C32.1483 67.8539 32.6731 68.3819 33.3206 68.3819C33.968 68.3819 34.4928 67.8539 34.4928 67.2026V25.5587Z" fill="url(#paint9_linear_3_55)"/>
<path d="M51.3511 25.5587C51.3511 24.9074 50.8262 24.3794 50.1788 24.3794C49.5314 24.3794 49.0066 24.9074 49.0066 25.5587V83.1542C49.0066 83.8055 49.5314 84.3334 50.1788 84.3334C50.8262 84.3334 51.3511 83.8055 51.3511 83.1542V25.5587Z" fill="url(#paint10_linear_3_55)"/>
<path d="M42.9926 22.0759V87.7612C42.162 87.7615 41.3322 87.8088 40.507 87.9027V22.0759C40.5318 21.7625 40.6735 21.47 40.9038 21.2567C41.1342 21.0434 41.4362 20.9249 41.7498 20.9249C42.0633 20.9249 42.3654 21.0434 42.5957 21.2567C42.826 21.47 42.9677 21.7625 42.9926 22.0759Z" fill="url(#paint11_linear_3_55)"/>
<path d="M40.507 96.2677C41.3393 96.2834 42.1696 96.3543 42.9926 96.4799V102.431C42.9677 102.745 42.826 103.037 42.5957 103.25C42.3654 103.464 42.0633 103.582 41.7498 103.582C41.4362 103.582 41.1342 103.464 40.9038 103.25C40.6735 103.037 40.5318 102.745 40.507 102.431V96.2677Z" fill="url(#paint12_linear_3_55)"/>
<path d="M73.8785 95.961C74.0391 95.8044 74.1578 95.6097 74.2235 95.395H74.6626C74.657 95.6431 74.5778 95.884 74.4352 96.0868C74.4478 96.1509 74.4759 96.2108 74.5169 96.2615C74.5578 96.3122 74.6106 96.3521 74.6704 96.3777C74.9664 96.4519 75.2761 96.4519 75.5721 96.3777C75.7839 96.4249 75.8623 96.4956 75.8231 96.5978C75.7979 96.6506 75.7607 96.6967 75.7143 96.7322C75.668 96.7678 75.6139 96.7918 75.5565 96.8023L75.2428 96.8573C75.0735 96.9015 74.9001 96.9278 74.7253 96.9359C74.4722 96.905 74.2371 96.7886 74.0588 96.6057C73.7922 96.4013 73.7373 96.189 73.8785 95.961Z" fill="#AC9104"/>
<path d="M74.5293 94.2C74.4668 94.3006 74.3732 94.3779 74.2627 94.4201C74.1608 94.4201 74.1451 94.483 74.2157 94.5223C74.2938 94.5599 74.3633 94.6134 74.4195 94.6796C74.4809 94.7501 74.5311 94.8297 74.5685 94.9154C74.6231 95.0725 74.6548 95.2367 74.6626 95.4029H74.2157C74.2232 95.2763 74.1919 95.1505 74.1261 95.0423C74.0602 94.934 73.9629 94.8486 73.8471 94.7975C73.756 94.7579 73.6615 94.7263 73.5649 94.7031C73.48 94.6758 73.3984 94.6388 73.3218 94.5931C73.2907 94.5724 73.2651 94.5444 73.2473 94.5115C73.2295 94.4786 73.2201 94.4418 73.2198 94.4044C73.2135 94.3692 73.2194 94.3328 73.2365 94.3013C73.2536 94.2699 73.2809 94.2452 73.3139 94.2315C73.3916 94.1923 73.4779 94.1733 73.5649 94.1764C73.6552 94.1767 73.745 94.1634 73.8314 94.1371C73.8966 94.1171 73.9596 94.0908 74.0196 94.0585C74.0809 94.0095 74.1271 93.944 74.1529 93.8698C74.1952 93.7959 74.2143 93.711 74.2078 93.6261H74.6626C74.6624 93.8251 74.6168 94.0214 74.5293 94.2ZM71.3223 94.373C71.3223 94.373 71.3223 94.373 71.3694 94.373H71.4321C71.4606 94.3876 71.4848 94.4092 71.5027 94.4358C71.5103 94.4748 71.5103 94.5148 71.5027 94.5538C71.5137 94.6109 71.5137 94.6696 71.5027 94.7267C71.4866 94.7788 71.4599 94.8271 71.4242 94.8683C71.3986 94.9098 71.3638 94.9448 71.3223 94.9704C71.2798 94.9988 71.2316 95.0176 71.1812 95.0255H71.04L70.891 94.9783C70.8552 94.9517 70.8235 94.9199 70.797 94.884C70.7646 94.8492 70.7382 94.8093 70.7185 94.7661C70.7104 94.7166 70.7104 94.6661 70.7185 94.6167C70.7104 94.5725 70.7104 94.5272 70.7185 94.483C70.7361 94.4475 70.76 94.4155 70.7891 94.3887C70.8089 94.3642 70.8367 94.3475 70.8675 94.3415C70.8978 94.33 70.9313 94.33 70.9616 94.3415H71.0557H71.1498H71.2517C71.2711 94.3597 71.2959 94.3707 71.3223 94.373Z" fill="#AC9104"/>
<path d="M72.4514 90.5993C72.5702 90.5544 72.6978 90.5375 72.8242 90.5498C72.9506 90.562 73.0725 90.6032 73.1806 90.6701C73.3746 90.7871 73.556 90.9241 73.7216 91.0789C73.8914 91.2423 74.039 91.4273 74.1607 91.6292C74.3109 91.8764 74.4319 92.1402 74.5214 92.4154C74.6376 92.84 74.6852 93.2806 74.6626 93.7204H74.2156C74.2279 93.3658 74.1775 93.0118 74.0666 92.6748C73.9449 92.3109 73.7619 91.9705 73.5256 91.6685C73.2752 91.3588 72.9591 91.1091 72.6004 90.9374C72.3651 90.8116 72.2867 90.6936 72.4514 90.5993Z" fill="#AC9104"/>
<path d="M70.6558 88.4452C70.6558 88.2565 70.9772 88.06 71.6202 87.8634L73.2668 87.3524C73.5902 87.2234 73.942 87.1827 74.2862 87.2345C74.4979 87.2974 74.6076 87.4153 74.6076 87.604C74.6076 87.7926 74.443 87.7927 74.1058 87.8162C73.8697 87.8188 73.635 87.8532 73.408 87.9185L72.467 88.2486L71.534 88.571C71.3599 88.6604 71.1642 88.6985 70.9694 88.681C70.9 88.6762 70.8335 88.6514 70.7778 88.6096C70.7222 88.5677 70.6798 88.5106 70.6558 88.4452Z" fill="#AC9104"/>
<path d="M70.35 83.8775V83.7831C70.3687 83.7377 70.402 83.6999 70.4446 83.6757C70.4873 83.6515 70.5368 83.6422 70.5852 83.6495C70.9538 83.7281 71.1655 84.1055 71.2203 84.7659C71.2752 85.4263 71.4085 85.7564 71.6281 85.7407C71.9918 85.7031 72.3426 85.5849 72.6552 85.3948C72.9984 85.208 73.3614 85.0603 73.7373 84.9545C73.9044 84.9124 74.075 84.8861 74.247 84.8759C74.3206 84.8709 74.3941 84.8873 74.4587 84.9231C74.4925 84.9485 74.521 84.9803 74.5425 85.0167C74.564 85.0531 74.5782 85.0935 74.5841 85.1354C74.5449 85.2926 74.3411 85.4105 73.9647 85.5049C73.6312 85.5779 73.3111 85.7025 73.0159 85.8744C72.5811 86.0963 72.1118 86.2425 71.6281 86.3068C71.5227 86.3164 71.4165 86.3027 71.317 86.2667C71.2175 86.2306 71.1271 86.173 71.0522 86.0979C70.9774 86.0229 70.92 85.9323 70.884 85.8325C70.848 85.7327 70.8343 85.6262 70.844 85.5206C70.7738 84.9487 70.6067 84.393 70.35 83.8775Z" fill="#AC9104"/>
<path d="M73.7844 77.8632C73.7822 77.804 73.7955 77.7452 73.823 77.6928C73.8505 77.6403 73.8913 77.5961 73.9413 77.5644C74.0453 77.4901 74.1246 77.3859 74.1687 77.2657C74.2079 77.1678 74.2318 77.0644 74.2392 76.9591H74.6626C74.6626 77.022 74.6626 77.1321 74.6626 77.2736C74.6424 77.4299 74.5889 77.58 74.5058 77.7138C74.4222 77.8553 74.3908 77.9497 74.4117 77.9968C74.5577 78.5016 74.7686 78.9853 75.039 79.4356C75.4338 80.2007 75.9068 80.9226 76.4504 81.5897C76.6153 81.8724 76.8613 82.0987 77.1565 82.239C77.4517 82.3792 77.7822 82.427 78.1049 82.3759C78.456 82.3448 78.7974 82.2432 79.1085 82.0771C79.1477 82.0771 79.1713 82.0771 79.1634 82.1164C79.1634 82.313 78.9125 82.541 78.3793 82.8083L78.0657 82.9105C77.6321 82.9902 77.1845 82.9121 76.8033 82.6903C76.2365 82.2665 75.7617 81.7315 75.4076 81.118C74.972 80.4356 74.5842 79.7237 74.2471 78.9874C74.0658 78.6245 73.9112 78.2487 73.7844 77.8632ZM72.2946 80.2217H72.1927H72.0986H72.0045C71.9716 80.2097 71.9355 80.2097 71.9026 80.2217C71.8725 80.2297 71.8454 80.2461 71.8242 80.2689C71.7997 80.2978 71.7786 80.3295 71.7615 80.3632C71.7488 80.4096 71.7488 80.4584 71.7615 80.5048C71.7533 80.5516 71.7533 80.5995 71.7615 80.6463C71.7772 80.6921 71.8011 80.7347 71.832 80.772C71.8672 80.8095 71.91 80.839 71.9575 80.8585C72.0047 80.8813 72.0548 80.8972 72.1065 80.9057C72.1532 80.9136 72.2009 80.9136 72.2476 80.9057C72.2981 80.8978 72.3462 80.879 72.3887 80.8507C72.4324 80.8251 72.4698 80.7902 72.4985 80.7485C72.5266 80.701 72.5502 80.651 72.5691 80.5991C72.5803 80.542 72.5803 80.4832 72.5691 80.4261C72.5767 80.3872 72.5767 80.3471 72.5691 80.3082C72.5513 80.2816 72.527 80.2599 72.4985 80.2453H72.4279C72.4279 80.2453 72.4279 80.2453 72.3809 80.2453C72.3651 80.2461 72.3494 80.2438 72.3346 80.2384C72.3198 80.233 72.3062 80.2246 72.2946 80.2139V80.2217Z" fill="#AC9104"/>
<path d="M74.1764 76.6997C74.1201 76.5768 74.0462 76.4629 73.9569 76.3616C73.8314 76.5896 73.6903 76.7154 73.5335 76.7311C73.3989 76.7478 73.2624 76.7344 73.1336 76.6918C73.0054 76.6388 72.8903 76.5583 72.7964 76.4559C72.7401 76.4032 72.6967 76.3382 72.6695 76.2659C72.6423 76.1937 72.6321 76.1161 72.6396 76.0393C72.6465 75.8998 72.7052 75.7679 72.8043 75.6698C72.9478 75.5624 73.1195 75.4996 73.2982 75.4889C73.5109 75.4904 73.7213 75.5331 73.9177 75.6147C74.1559 75.7366 74.3423 75.9403 74.443 76.1886C74.584 76.4267 74.6597 76.6979 74.6626 76.9748H74.2156C74.2154 76.8817 74.2022 76.7891 74.1764 76.6997Z" fill="#AC9104"/>
<path d="M74.3802 72.5643C74.2992 72.4871 74.2466 72.3845 74.2313 72.2735C74.212 72.1484 74.212 72.0212 74.2313 71.8961H74.6468C74.6378 71.9825 74.6574 72.0694 74.7028 72.1434C74.7482 72.2173 74.8168 72.2741 74.8978 72.3049C75.0859 72.3914 75.329 72.5093 75.6191 72.6666C76.0544 72.9922 76.3822 73.4414 76.5601 73.9559C76.6385 74.4512 76.513 74.5141 76.1758 74.1446C75.8387 73.7751 75.7446 73.6257 75.5956 73.4291C75.4307 73.2183 75.2148 73.0532 74.9683 72.9496C74.7503 72.8587 74.5509 72.728 74.3802 72.5643Z" fill="#AC9104"/>
<path d="M71.2047 71.7939C71.3615 71.959 71.3145 72.0455 71.0479 72.0376C70.9881 72.0464 70.9274 72.0464 70.8676 72.0376C70.7909 72.0116 70.7173 71.9773 70.648 71.9354L70.4912 71.8018C70.4399 71.7565 70.3997 71.7 70.3736 71.6367C70.3297 71.5403 70.3057 71.436 70.303 71.3301C70.2891 71.2187 70.3111 71.1057 70.3657 71.0077C70.4161 70.9109 70.4887 70.8273 70.5774 70.764C70.6768 70.6962 70.7944 70.6605 70.9146 70.6618C71.0451 70.6529 71.176 70.6717 71.2988 70.7168C71.4271 70.7595 71.5485 70.8204 71.6595 70.8976C71.7861 70.9978 71.9017 71.1112 72.0045 71.2357C72.0921 71.3294 72.1612 71.4387 72.2084 71.558C72.2084 71.8646 72.1378 71.9118 71.9261 71.6917C71.8517 71.6092 71.7732 71.5305 71.6909 71.4558C71.6282 71.393 71.5576 71.3379 71.5027 71.2907L71.3145 71.1571C71.245 71.1216 71.1712 71.0951 71.095 71.0785C71.064 71.0605 71.0288 71.0511 70.993 71.0511C70.9572 71.0511 70.9221 71.0605 70.8911 71.0785C70.8354 71.1127 70.7937 71.1656 70.7735 71.2278C70.7463 71.2987 70.7463 71.3771 70.7735 71.448C70.8019 71.5337 70.8568 71.608 70.9303 71.6602C71.0167 71.7147 71.1087 71.7595 71.2047 71.7939ZM74.6626 70.1508H74.2079C74.2139 70.2357 74.1948 70.3204 74.153 70.3945C74.1275 70.4667 74.081 70.5297 74.0197 70.5753C73.9599 70.6103 73.8969 70.6393 73.8315 70.6618C73.7431 70.6747 73.6533 70.6747 73.5649 70.6618C73.4788 70.6662 73.394 70.6848 73.314 70.7168C73.2804 70.7321 73.2528 70.7581 73.2357 70.7909C73.2187 70.8237 73.2131 70.8613 73.2199 70.8976C73.2219 70.9347 73.2322 70.9708 73.2498 71.0034C73.2674 71.036 73.292 71.0644 73.3218 71.0863C73.3988 71.1293 73.4803 71.1636 73.5649 71.1885L73.8472 71.2829C73.9531 71.3292 74.0431 71.4057 74.1059 71.503C74.1856 71.6149 74.2244 71.751 74.2157 71.8882H74.6626C74.654 71.7222 74.6223 71.5581 74.5685 71.4008C74.5291 71.3186 74.479 71.2419 74.4196 71.1728C74.3635 71.1045 74.2941 71.0483 74.2157 71.0077C74.1451 70.9684 74.1608 70.937 74.2628 70.9055C74.3748 70.8661 74.4693 70.7881 74.5293 70.6854C74.6124 70.5192 74.6579 70.3366 74.6626 70.1508Z" fill="#AC9104"/>
<path d="M73.2277 68.7514C73.3831 68.7782 73.5354 68.8204 73.6825 68.8772C73.7948 68.9184 73.9025 68.9711 74.004 69.0344C74.1093 69.0993 74.209 69.1729 74.302 69.2545C74.409 69.3557 74.4967 69.4756 74.5607 69.6083C74.639 69.8001 74.6738 70.0068 74.6626 70.2137H74.2471C74.2336 70.0521 74.1826 69.8959 74.0981 69.7577C74.0189 69.6441 73.9176 69.5478 73.8001 69.4747C73.7004 69.4015 73.5849 69.353 73.463 69.3332C73.2557 69.298 73.0459 69.2796 72.8357 69.2781C72.6878 69.3079 72.535 69.3012 72.3902 69.2588C72.2455 69.2164 72.1131 69.1393 72.0045 69.0344C71.8634 68.851 71.9575 68.7409 72.2868 68.7042C72.6012 68.69 72.9163 68.7058 73.2277 68.7514ZM66.3041 66.3928C66.9314 66.8488 67.5665 67.3362 68.2095 67.8473C68.8524 68.3583 69.5111 68.8615 70.2089 69.341C70.9068 69.8206 71.3929 70.0171 71.6595 69.9385C71.7223 69.9385 71.7458 69.9385 71.7222 69.8677C70.7421 69.168 69.8404 68.4919 69.0171 67.8551C68.1938 67.2183 67.6057 66.7623 67.245 66.5029C66.8843 66.2435 66.5785 66.0391 66.3041 65.874L65.6611 65.4887C65.4795 65.3818 65.2909 65.2873 65.0966 65.2057C64.8613 65.2057 64.8378 65.2922 65.0181 65.4494C65.1985 65.6067 65.6689 65.9211 66.3041 66.3771V66.3928Z" fill="#AC9104"/>
<path d="M70.9695 67.1712V67.1161C70.9681 67.0655 70.9775 67.0152 70.9971 66.9685C71.0168 66.9219 71.0461 66.88 71.0833 66.8457C71.1205 66.8114 71.1645 66.7855 71.2126 66.7698C71.2606 66.7541 71.3114 66.7488 71.3616 66.7545H71.5184C72.2651 66.7259 73.011 66.8297 73.7217 67.0611C74.0606 67.1888 74.353 67.4163 74.5607 67.7136L74.6313 67.9023L74.5764 68.0045H74.4901C74.2108 67.8077 73.9008 67.6589 73.5727 67.5642C73.179 67.4528 72.7739 67.3868 72.3652 67.3677L71.0087 67.2734L70.9695 67.1712Z" fill="#AC9104"/>
<path d="M72.4436 63.6884C72.5428 63.4946 72.6554 63.3081 72.7807 63.1302C72.8971 62.9817 73.0503 62.8665 73.2251 62.7961C73.3999 62.7258 73.59 62.7027 73.7765 62.7293C74.1372 62.7293 74.4038 63.0595 74.5606 63.6098C74.6097 63.8324 74.5934 64.0645 74.5136 64.278C74.4729 64.3691 74.4068 64.4464 74.3234 64.5008C74.24 64.5552 74.1427 64.5843 74.0431 64.5846C73.6074 64.4944 73.2087 64.2753 72.8983 63.9557C72.7049 64.0972 72.5638 64.1208 72.4749 64.0265C72.4339 63.9811 72.4087 63.9236 72.4031 63.8627C72.3974 63.8017 72.4116 63.7406 72.4436 63.6884ZM74.0118 64.1208C74.1059 64.1208 74.1529 64.0422 74.1529 63.8928C74.0745 63.4054 73.8863 63.1538 73.5727 63.1538C73.259 63.1538 73.1963 63.2717 73.1963 63.4132C73.2212 63.5144 73.2659 63.6096 73.3278 63.6932C73.3898 63.7769 73.4676 63.8474 73.557 63.9007C73.685 64.0153 73.8426 64.0915 74.0118 64.1208Z" fill="#AC9104"/>
<path d="M74.3803 61.4242C74.2977 61.3481 74.2448 61.245 74.2314 61.1333C74.2124 61.0082 74.2124 60.881 74.2314 60.7559H74.6469C74.6364 60.8425 74.6555 60.9301 74.7011 61.0043C74.7467 61.0786 74.8161 61.1351 74.8979 61.1647C75.086 61.2512 75.3291 61.3692 75.6192 61.5264C76.0524 61.8575 76.3795 62.3084 76.5602 62.8236C76.6386 63.311 76.5131 63.3739 76.1759 63.0123C75.8388 62.6506 75.7447 62.4855 75.5957 62.289C75.4284 62.0805 75.2132 61.9159 74.9684 61.8094C74.7504 61.7185 74.551 61.5879 74.3803 61.4242Z" fill="#AC9104"/>
<path d="M74.5293 59.5845C74.4669 59.6851 74.3732 59.7625 74.2628 59.8047C74.1608 59.8047 74.1451 59.8676 74.2157 59.899C74.2924 59.9422 74.3613 59.998 74.4196 60.0641C74.4809 60.1347 74.5311 60.2142 74.5685 60.3C74.6233 60.4543 74.6551 60.6159 74.6626 60.7795H74.2157C74.2231 60.6424 74.1845 60.5068 74.1059 60.3943C74.0386 60.3011 73.9498 60.2256 73.8472 60.1742L73.5649 60.0877C73.48 60.0603 73.3984 60.0234 73.3218 59.9776C73.2907 59.957 73.2651 59.929 73.2473 59.8961C73.2295 59.8631 73.2201 59.8264 73.2199 59.7889C73.2136 59.7537 73.2194 59.7173 73.2366 59.6859C73.2537 59.6544 73.281 59.6297 73.314 59.616C73.3917 59.5768 73.478 59.5579 73.5649 59.561C73.6533 59.5741 73.7431 59.5741 73.8315 59.561C73.8966 59.541 73.9596 59.5146 74.0197 59.4823C74.081 59.4333 74.1272 59.3679 74.153 59.2936C74.1952 59.2198 74.2144 59.1348 74.2079 59.0499H74.6626C74.6567 59.2356 74.6112 59.4179 74.5293 59.5845ZM75.9564 60.0169H76.0113C76.0396 60.0096 76.0693 60.0096 76.0976 60.0169C76.1223 60.0337 76.1435 60.0551 76.1603 60.0798C76.1603 60.0798 76.1603 60.1427 76.1603 60.2056C76.1521 60.2701 76.1363 60.3335 76.1132 60.3943C76.0962 60.4445 76.0725 60.4921 76.0427 60.5358C76.0159 60.5792 75.978 60.6145 75.9329 60.638C75.8946 60.6675 75.8479 60.6841 75.7996 60.6852H75.6585C75.6055 60.683 75.5541 60.6667 75.5095 60.638C75.4659 60.6157 75.4262 60.5865 75.3918 60.5515C75.353 60.5258 75.3251 60.4866 75.3135 60.4415C75.3053 60.392 75.3053 60.3415 75.3135 60.2921C75.3018 60.2483 75.3018 60.2022 75.3135 60.1584L75.3762 60.0641C75.3991 60.0395 75.4294 60.023 75.4624 60.0169H75.5565H75.6506L75.7525 60.0641C75.7829 60.0756 75.8163 60.0756 75.8466 60.0641L75.9564 60.0169Z" fill="#AC9104"/>
<path d="M71.7692 56.5499C71.7624 56.4848 71.7696 56.419 71.7904 56.357C71.8112 56.295 71.8451 56.2382 71.8897 56.1905C71.9343 56.1427 71.9887 56.1052 72.0491 56.0804C72.1095 56.0556 72.1745 56.0441 72.2397 56.0467C72.445 56.055 72.6463 56.1069 72.8302 56.1991C73.014 56.2913 73.1762 56.4215 73.3061 56.5813L73.6903 57.0059L73.9725 57.2889C74.2548 56.9587 74.3489 57.1395 74.247 57.8392C74.4007 58.0856 74.5244 58.3495 74.6155 58.6254C74.6569 58.7655 74.6728 58.912 74.6625 59.0578H74.2234V58.9006C74.1607 58.5861 74.0431 58.4131 73.8863 58.3738L73.4472 58.6647C73.3633 58.7256 73.2601 58.7536 73.1571 58.7433C72.9532 58.7433 72.616 58.3817 72.1612 57.6741C71.9204 57.3476 71.7838 56.9557 71.7692 56.5499ZM69.4169 57.7292H69.3149H69.2208H69.1268H69.0327C69.0018 57.7351 68.974 57.7518 68.9542 57.7763C68.9272 57.8032 68.9059 57.8353 68.8915 57.8707C68.8659 57.9134 68.8523 57.9623 68.8523 58.0122C68.845 58.0591 68.845 58.1068 68.8523 58.1537C68.8664 58.198 68.8905 58.2383 68.9229 58.2716C68.9565 58.3108 68.9998 58.3406 69.0483 58.3581C69.0928 58.3808 69.1404 58.3967 69.1895 58.4053H69.3306C69.3811 58.3974 69.4292 58.3786 69.4718 58.3502C69.5131 58.3249 69.5502 58.293 69.5815 58.2559C69.6096 58.2084 69.6332 58.1584 69.6521 58.1065C69.6667 58.0498 69.6667 57.9903 69.6521 57.9336C69.6632 57.895 69.6632 57.8542 69.6521 57.8156C69.6338 57.7914 69.6095 57.7724 69.5815 57.7606H69.5188C69.5036 57.7552 69.487 57.7552 69.4718 57.7606C69.4542 57.7532 69.4383 57.7425 69.4247 57.7292H69.4169ZM73.1806 58.1222C73.2734 58.129 73.366 58.1059 73.4449 58.0565C73.5238 58.007 73.585 57.9337 73.6197 57.8471V57.7606C73.4412 57.324 73.152 56.9419 72.7807 56.6521C72.72 56.6029 72.648 56.5699 72.5712 56.5562C72.4944 56.5425 72.4155 56.5484 72.3416 56.5735L72.2789 56.6285V56.6835C72.344 57.0376 72.4859 57.3731 72.6944 57.6663C72.914 57.9729 73.0786 58.1222 73.1884 58.1222H73.1806Z" fill="#AC9104"/>
<path d="M41.7511 114.01L36.0348 119.741L41.7511 125.473L47.4675 119.741L41.7511 114.01Z" fill="url(#paint13_linear_3_55)"/>
</g>
<defs>
<linearGradient id="paint0_linear_3_55" x1="88.9526" y1="-0.0235863" x2="88.9526" y2="147.868" gradientUnits="userSpaceOnUse">
<stop stop-color="#AC9104"/>
<stop offset="1" stop-color="#726416"/>
</linearGradient>
<linearGradient id="paint1_linear_3_55" x1="111.415" y1="79.2233" x2="111.415" y2="156.902" gradientUnits="userSpaceOnUse">
<stop stop-color="#AC9104"/>
<stop offset="1" stop-color="#726416"/>
</linearGradient>
<linearGradient id="paint2_linear_3_55" x1="145.378" y1="63.2539" x2="145.378" y2="157.008" gradientUnits="userSpaceOnUse">
<stop stop-color="#AC9104"/>
<stop offset="1" stop-color="#726416"/>
</linearGradient>
<linearGradient id="paint3_linear_3_55" x1="7.40988" y1="16.0204" x2="7.40988" y2="19.0236" gradientUnits="userSpaceOnUse">
<stop stop-color="#AC9104"/>
<stop offset="1" stop-color="#726416"/>
</linearGradient>
<linearGradient id="paint4_linear_3_55" x1="43.5453" y1="8.1995" x2="43.5453" y2="21.7079" gradientUnits="userSpaceOnUse">
<stop stop-color="#AC9104"/>
<stop offset="1" stop-color="#726416"/>
</linearGradient>
<linearGradient id="paint5_linear_3_55" x1="11.844" y1="40.5275" x2="11.844" y2="47.0921" gradientUnits="userSpaceOnUse">
<stop stop-color="#AC9104"/>
<stop offset="1" stop-color="#726416"/>
</linearGradient>
<linearGradient id="paint6_linear_3_55" x1="11.8517" y1="19.9768" x2="11.8517" y2="40.4175" gradientUnits="userSpaceOnUse">
<stop stop-color="#AC9104"/>
<stop offset="1" stop-color="#726416"/>
</linearGradient>
<linearGradient id="paint7_linear_3_55" x1="71.8045" y1="40.5275" x2="71.8045" y2="47.0921" gradientUnits="userSpaceOnUse">
<stop stop-color="#AC9104"/>
<stop offset="1" stop-color="#726416"/>
</linearGradient>
<linearGradient id="paint8_linear_3_55" x1="71.8084" y1="19.9768" x2="71.8084" y2="40.4175" gradientUnits="userSpaceOnUse">
<stop stop-color="#AC9104"/>
<stop offset="1" stop-color="#726416"/>
</linearGradient>
<linearGradient id="paint9_linear_3_55" x1="33.3206" y1="24.3794" x2="33.3206" y2="68.3819" gradientUnits="userSpaceOnUse">
<stop stop-color="#AC9104"/>
<stop offset="1" stop-color="#726416"/>
</linearGradient>
<linearGradient id="paint10_linear_3_55" x1="50.1788" y1="24.3794" x2="50.1788" y2="84.3334" gradientUnits="userSpaceOnUse">
<stop stop-color="#AC9104"/>
<stop offset="1" stop-color="#726416"/>
</linearGradient>
<linearGradient id="paint11_linear_3_55" x1="41.7498" y1="20.9249" x2="41.7498" y2="87.9027" gradientUnits="userSpaceOnUse">
<stop stop-color="#AC9104"/>
<stop offset="1" stop-color="#726416"/>
</linearGradient>
<linearGradient id="paint12_linear_3_55" x1="41.7498" y1="96.2677" x2="41.7498" y2="103.582" gradientUnits="userSpaceOnUse">
<stop stop-color="#AC9104"/>
<stop offset="1" stop-color="#726416"/>
</linearGradient>
<linearGradient id="paint13_linear_3_55" x1="38.893" y1="116.875" x2="44.6244" y2="122.592" gradientUnits="userSpaceOnUse">
<stop stop-color="#AC9104"/>
<stop offset="1" stop-color="#726416"/>
</linearGradient>
<clipPath id="clip0_3_55">
<rect width="163" height="157" fill="white"/>
</clipPath>
</defs>
</svg>
